<svg width="68" height="68" viewBox="0 0 68 68" fill="none" xmlns="http://www.w3.org/2000/svg">
<g filter="url(#filter0_d_2506_8502)">
<rect x="12" y="6" width="44" height="44" rx="6" fill="#1CA1F2"/>
<path d="M40.3612 24.6641C40.372 24.81 40.372 24.955 40.372 25.1C40.372 29.5375 36.9945 34.6508 30.822 34.6508C28.9203 34.6508 27.1537 34.1 25.667 33.1433C25.937 33.1741 26.197 33.185 26.4778 33.185C28.047 33.185 29.4912 32.655 30.6453 31.7508C29.1695 31.72 27.9328 30.7533 27.5062 29.4233C27.7137 29.4541 27.922 29.475 28.1403 29.475C28.4412 29.475 28.7437 29.4333 29.0245 29.3608C27.4853 29.0491 26.3328 27.6983 26.3328 26.0666V26.025C26.7803 26.2741 27.2995 26.43 27.8495 26.4508C26.9453 25.8491 26.3528 24.82 26.3528 23.6558C26.3528 23.0325 26.5187 22.4608 26.8095 21.9625C28.462 23.9983 30.9462 25.3291 33.7312 25.475C33.6795 25.225 33.6478 24.9658 33.6478 24.7058C33.6478 22.8558 35.1445 21.3491 37.0045 21.3491C37.9712 21.3491 38.8437 21.7541 39.457 22.4091C40.2153 22.2633 40.942 21.9825 41.587 21.5983C41.3378 22.3775 40.807 23.0325 40.1112 23.4483C40.787 23.375 41.442 23.1883 42.0437 22.9283C41.587 23.5933 41.0162 24.1858 40.3612 24.6641Z" fill="white"/>
</g>
<defs>
<filter id="filter0_d_2506_8502" x="0" y="0" width="68" height="68" filterUnits="userSpaceOnUse" color-interpolation-filters="sRGB">
<feFlood flood-opacity="0" result="BackgroundImageFix"/>
<feColorMatrix in="SourceAlpha" type="matrix" values="0 0 0 0 0 0 0 0 0 0 0 0 0 0 0 0 0 0 127 0" result="hardAlpha"/>
<feMorphology radius="6" operator="erode" in="SourceAlpha" result="effect1_dropShadow_2506_8502"/>
<feOffset dy="6"/>
<feGaussianBlur stdDeviation="9"/>
<feColorMatrix type="matrix" values="0 0 0 0 0.109804 0 0 0 0 0.631373 0 0 0 0 0.94902 0 0 0 0.8 0"/>
<feBlend mode="normal" in2="BackgroundImageFix" result="effect1_dropShadow_2506_8502"/>
<feBlend mode="normal" in="SourceGraphic" in2="effect1_dropShadow_2506_8502" result="shape"/>
</filter>
</defs>
</svg>
