<svg width="1296" height="222" viewBox="0 0 1296 222" fill="none" xmlns="http://www.w3.org/2000/svg">
<rect width="1296" height="222" rx="8" fill="#F3F6FF"/>
<rect x="714.5" y="85.5" width="471" height="51" rx="7.5" fill="white"/>
<rect x="714.5" y="85.5" width="471" height="51" rx="7.5" stroke="#D4D7E5"/>
<path d="M761.864 117H763.048V112.176L766.896 105.48H765.536L762.456 110.832L759.36 105.48H758L761.864 112.176V117ZM770.337 117.24C771.191 117.24 771.921 117.048 772.529 116.664C773.143 116.28 773.612 115.747 773.937 115.064C774.268 114.376 774.433 113.579 774.433 112.672C774.433 111.781 774.271 110.995 773.945 110.312C773.625 109.624 773.159 109.088 772.545 108.704C771.937 108.315 771.201 108.12 770.337 108.12C769.495 108.12 768.767 108.312 768.153 108.696C767.545 109.075 767.076 109.605 766.745 110.288C766.415 110.971 766.249 111.765 766.249 112.672C766.249 113.563 766.409 114.352 766.729 115.04C767.055 115.728 767.521 116.267 768.129 116.656C768.743 117.045 769.479 117.24 770.337 117.24ZM770.337 116.112C769.404 116.112 768.697 115.8 768.217 115.176C767.737 114.547 767.497 113.712 767.497 112.672C767.497 111.664 767.729 110.843 768.193 110.208C768.657 109.568 769.372 109.248 770.337 109.248C771.292 109.248 772.004 109.56 772.473 110.184C772.948 110.803 773.185 111.632 773.185 112.672C773.185 113.691 772.951 114.52 772.481 115.16C772.012 115.795 771.297 116.112 770.337 116.112ZM779.502 117.216C780.121 117.216 780.678 117.099 781.174 116.864C781.675 116.624 782.086 116.269 782.406 115.8V117H783.462V108.36H782.286V112.968C782.286 113.944 782.067 114.709 781.63 115.264C781.193 115.819 780.558 116.096 779.726 116.096C779.123 116.096 778.638 115.952 778.27 115.664C777.902 115.371 777.635 114.973 777.47 114.472C777.305 113.971 777.222 113.403 777.222 112.768V108.36H776.038V113.112C776.038 113.597 776.097 114.083 776.214 114.568C776.337 115.053 776.531 115.496 776.798 115.896C777.065 116.296 777.419 116.616 777.862 116.856C778.31 117.096 778.857 117.216 779.502 117.216ZM785.698 117H786.874V112.688C786.874 112.171 786.933 111.656 787.05 111.144C787.173 110.627 787.45 110.197 787.882 109.856C788.197 109.6 788.538 109.453 788.906 109.416C789.279 109.373 789.626 109.389 789.946 109.464V108.36C789.567 108.264 789.138 108.261 788.658 108.352C788.178 108.437 787.767 108.629 787.426 108.928C787.17 109.12 786.946 109.387 786.754 109.728V108.36H785.698V117ZM794.667 117H801.867V115.872H795.843V111.72H800.907V110.592H795.843V106.608H801.867V105.48H794.667V117ZM803.784 117H804.968V111.424C804.968 110.747 805.152 110.205 805.52 109.8C805.888 109.389 806.371 109.184 806.968 109.184C807.565 109.184 808.045 109.384 808.408 109.784C808.776 110.179 808.96 110.72 808.96 111.408L808.952 117H810.112L810.12 111.424C810.12 110.885 810.219 110.453 810.416 110.128C810.619 109.797 810.875 109.557 811.184 109.408C811.493 109.259 811.811 109.184 812.136 109.184C812.707 109.184 813.176 109.376 813.544 109.76C813.917 110.139 814.104 110.661 814.104 111.328L814.096 117H815.272L815.28 111.104C815.28 110.192 815.019 109.469 814.496 108.936C813.979 108.397 813.283 108.128 812.408 108.128C811.832 108.128 811.315 108.259 810.856 108.52C810.397 108.776 810.043 109.131 809.792 109.584C809.557 109.109 809.219 108.749 808.776 108.504C808.339 108.253 807.837 108.128 807.272 108.128C806.76 108.128 806.293 108.232 805.872 108.44C805.451 108.643 805.107 108.92 804.84 109.272V108.36H803.784V117ZM819.826 117.24C821.336 117.24 822.432 116.683 823.114 115.568V117H824.162V111.632C824.162 111.312 824.146 110.997 824.114 110.688C824.082 110.379 824.013 110.099 823.906 109.848C823.677 109.288 823.285 108.861 822.73 108.568C822.181 108.269 821.512 108.12 820.722 108.12C819.773 108.12 819 108.333 818.402 108.76C817.805 109.187 817.405 109.787 817.202 110.56L818.346 110.896C818.512 110.32 818.797 109.899 819.202 109.632C819.613 109.365 820.114 109.232 820.706 109.232C821.528 109.232 822.114 109.424 822.466 109.808C822.818 110.187 823 110.765 823.01 111.544C822.626 111.597 822.202 111.653 821.738 111.712C821.28 111.771 820.818 111.837 820.354 111.912C819.89 111.987 819.464 112.072 819.074 112.168C818.429 112.339 817.901 112.624 817.49 113.024C817.08 113.419 816.874 113.971 816.874 114.68C816.874 115.139 816.984 115.563 817.202 115.952C817.421 116.341 817.749 116.653 818.186 116.888C818.629 117.123 819.176 117.24 819.826 117.24ZM819.962 116.224C819.498 116.224 819.125 116.149 818.842 116C818.565 115.845 818.362 115.651 818.234 115.416C818.112 115.176 818.05 114.931 818.05 114.68C818.05 114.211 818.208 113.859 818.522 113.624C818.837 113.389 819.178 113.219 819.546 113.112C820.021 112.984 820.573 112.88 821.202 112.8C821.832 112.72 822.429 112.645 822.994 112.576C822.994 112.773 822.986 113 822.97 113.256C822.96 113.507 822.93 113.739 822.882 113.952C822.77 114.603 822.461 115.144 821.954 115.576C821.453 116.008 820.789 116.224 819.962 116.224ZM826.405 106.72H827.581V105.4H826.405V106.72ZM826.405 117H827.581V108.36H826.405V117ZM830.139 117H831.315V105.24H830.139V117Z" fill="#B4B7C9"/>
<path d="M746.667 104.333H733.334C732.414 104.333 731.667 105.081 731.667 106V116C731.667 116.919 732.414 117.667 733.334 117.667H746.667C747.586 117.667 748.334 116.919 748.334 116V106C748.334 105.081 747.586 104.333 746.667 104.333ZM746.667 106V106.426L740 111.612L733.334 106.427V106H746.667ZM733.334 116V108.537L739.489 113.324C739.639 113.442 739.819 113.5 740 113.5C740.181 113.5 740.362 113.442 740.512 113.324L746.667 108.537L746.669 116H733.334Z" fill="#B4B7C9"/>
<path d="M1044 85H1178C1182.42 85 1186 88.5817 1186 93V129C1186 133.418 1182.42 137 1178 137H1044V85Z" fill="#6366F1"/>
<path d="M1081.75 117.24C1080.92 117.24 1080.18 117.099 1079.51 116.816C1078.85 116.528 1078.3 116.12 1077.87 115.592C1077.44 115.059 1077.17 114.427 1077.04 113.696L1078.78 113.432C1078.96 114.136 1079.33 114.685 1079.89 115.08C1080.45 115.469 1081.1 115.664 1081.85 115.664C1082.31 115.664 1082.74 115.592 1083.13 115.448C1083.51 115.299 1083.83 115.088 1084.06 114.816C1084.3 114.539 1084.42 114.208 1084.42 113.824C1084.42 113.616 1084.38 113.432 1084.31 113.272C1084.24 113.112 1084.14 112.973 1084.01 112.856C1083.89 112.733 1083.74 112.629 1083.56 112.544C1083.38 112.453 1083.19 112.376 1082.97 112.312L1080.02 111.44C1079.73 111.355 1079.44 111.245 1079.14 111.112C1078.84 110.973 1078.57 110.795 1078.32 110.576C1078.07 110.352 1077.87 110.077 1077.72 109.752C1077.56 109.421 1077.49 109.021 1077.49 108.552C1077.49 107.843 1077.67 107.243 1078.03 106.752C1078.4 106.256 1078.89 105.883 1079.52 105.632C1080.14 105.376 1080.84 105.248 1081.61 105.248C1082.39 105.259 1083.09 105.397 1083.7 105.664C1084.32 105.931 1084.83 106.315 1085.24 106.816C1085.65 107.312 1085.93 107.915 1086.09 108.624L1084.29 108.928C1084.21 108.496 1084.04 108.125 1083.78 107.816C1083.52 107.501 1083.2 107.261 1082.82 107.096C1082.44 106.925 1082.03 106.837 1081.59 106.832C1081.16 106.821 1080.77 106.885 1080.41 107.024C1080.06 107.163 1079.78 107.357 1079.57 107.608C1079.36 107.859 1079.25 108.147 1079.25 108.472C1079.25 108.792 1079.35 109.051 1079.53 109.248C1079.72 109.445 1079.95 109.603 1080.22 109.72C1080.5 109.832 1080.77 109.925 1081.05 110L1083.17 110.6C1083.44 110.675 1083.74 110.776 1084.08 110.904C1084.42 111.027 1084.75 111.2 1085.06 111.424C1085.38 111.648 1085.65 111.947 1085.85 112.32C1086.06 112.688 1086.17 113.152 1086.17 113.712C1086.17 114.293 1086.05 114.805 1085.81 115.248C1085.58 115.685 1085.26 116.053 1084.85 116.352C1084.44 116.645 1083.97 116.867 1083.44 117.016C1082.9 117.165 1082.34 117.24 1081.75 117.24ZM1091.13 117.232C1090.53 117.232 1090.03 117.136 1089.62 116.944C1089.22 116.752 1088.89 116.501 1088.63 116.192C1088.38 115.877 1088.19 115.536 1088.05 115.168C1087.92 114.8 1087.83 114.44 1087.78 114.088C1087.73 113.736 1087.71 113.427 1087.71 113.16V108.36H1089.41V112.608C1089.41 112.944 1089.43 113.291 1089.49 113.648C1089.54 114 1089.65 114.328 1089.81 114.632C1089.97 114.936 1090.19 115.181 1090.47 115.368C1090.76 115.555 1091.13 115.648 1091.59 115.648C1091.89 115.648 1092.17 115.6 1092.44 115.504C1092.7 115.403 1092.94 115.243 1093.13 115.024C1093.34 114.805 1093.49 114.517 1093.61 114.16C1093.72 113.803 1093.78 113.368 1093.78 112.856L1094.82 113.248C1094.82 114.032 1094.68 114.725 1094.38 115.328C1094.09 115.925 1093.67 116.392 1093.12 116.728C1092.57 117.064 1091.9 117.232 1091.13 117.232ZM1093.98 117V114.504H1093.78V108.36H1095.47V117H1093.98ZM1101.77 117.24C1100.94 117.24 1100.25 117.04 1099.69 116.64C1099.13 116.235 1098.71 115.688 1098.42 115C1098.13 114.312 1097.99 113.536 1097.99 112.672C1097.99 111.808 1098.13 111.032 1098.41 110.344C1098.7 109.656 1099.12 109.115 1099.67 108.72C1100.23 108.32 1100.92 108.12 1101.74 108.12C1102.55 108.12 1103.25 108.32 1103.83 108.72C1104.43 109.115 1104.88 109.656 1105.2 110.344C1105.52 111.027 1105.68 111.803 1105.68 112.672C1105.68 113.536 1105.52 114.315 1105.2 115.008C1104.89 115.696 1104.44 116.24 1103.85 116.64C1103.27 117.04 1102.58 117.24 1101.77 117.24ZM1097.71 117V105.48H1099.39V110.784H1099.19V117H1097.71ZM1101.54 115.728C1102.07 115.728 1102.51 115.592 1102.86 115.32C1103.21 115.048 1103.47 114.683 1103.64 114.224C1103.82 113.76 1103.91 113.243 1103.91 112.672C1103.91 112.107 1103.82 111.595 1103.64 111.136C1103.47 110.677 1103.21 110.312 1102.85 110.04C1102.49 109.768 1102.04 109.632 1101.48 109.632C1100.96 109.632 1100.53 109.76 1100.19 110.016C1099.85 110.272 1099.6 110.629 1099.43 111.088C1099.27 111.547 1099.19 112.075 1099.19 112.672C1099.19 113.269 1099.27 113.797 1099.43 114.256C1099.59 114.715 1099.85 115.075 1100.19 115.336C1100.54 115.597 1100.99 115.728 1101.54 115.728ZM1110.6 117.232C1109.55 117.232 1108.69 117 1108.03 116.536C1107.37 116.072 1106.96 115.419 1106.81 114.576L1108.52 114.312C1108.63 114.76 1108.88 115.115 1109.26 115.376C1109.65 115.632 1110.13 115.76 1110.71 115.76C1111.23 115.76 1111.64 115.653 1111.93 115.44C1112.23 115.227 1112.38 114.933 1112.38 114.56C1112.38 114.341 1112.33 114.165 1112.22 114.032C1112.12 113.893 1111.9 113.763 1111.57 113.64C1111.24 113.517 1110.74 113.365 1110.06 113.184C1109.32 112.992 1108.73 112.787 1108.29 112.568C1107.86 112.344 1107.55 112.085 1107.36 111.792C1107.18 111.493 1107.09 111.133 1107.09 110.712C1107.09 110.189 1107.23 109.733 1107.51 109.344C1107.79 108.955 1108.17 108.653 1108.68 108.44C1109.18 108.227 1109.77 108.12 1110.45 108.12C1111.11 108.12 1111.7 108.224 1112.22 108.432C1112.74 108.64 1113.16 108.936 1113.48 109.32C1113.8 109.699 1113.99 110.144 1114.05 110.656L1112.34 110.968C1112.28 110.552 1112.09 110.224 1111.76 109.984C1111.43 109.744 1111 109.613 1110.47 109.592C1109.96 109.571 1109.55 109.656 1109.24 109.848C1108.92 110.035 1108.76 110.293 1108.76 110.624C1108.76 110.816 1108.82 110.979 1108.94 111.112C1109.06 111.245 1109.3 111.373 1109.64 111.496C1109.99 111.619 1110.5 111.765 1111.18 111.936C1111.91 112.123 1112.48 112.331 1112.91 112.56C1113.33 112.784 1113.64 113.053 1113.82 113.368C1114.01 113.677 1114.1 114.053 1114.1 114.496C1114.1 115.349 1113.79 116.019 1113.16 116.504C1112.55 116.989 1111.69 117.232 1110.6 117.232ZM1119.57 117.24C1118.68 117.24 1117.93 117.043 1117.31 116.648C1116.69 116.253 1116.22 115.712 1115.89 115.024C1115.56 114.336 1115.4 113.555 1115.39 112.68C1115.4 111.789 1115.57 111.003 1115.9 110.32C1116.24 109.632 1116.72 109.093 1117.34 108.704C1117.97 108.315 1118.72 108.12 1119.59 108.12C1120.53 108.12 1121.34 108.355 1122.01 108.824C1122.68 109.293 1123.12 109.936 1123.33 110.752L1121.67 111.232C1121.5 110.747 1121.23 110.371 1120.85 110.104C1120.48 109.832 1120.05 109.696 1119.57 109.696C1119.02 109.696 1118.57 109.827 1118.21 110.088C1117.86 110.344 1117.6 110.696 1117.43 111.144C1117.26 111.592 1117.17 112.104 1117.17 112.68C1117.17 113.571 1117.37 114.291 1117.77 114.84C1118.18 115.389 1118.78 115.664 1119.57 115.664C1120.1 115.664 1120.54 115.541 1120.87 115.296C1121.21 115.045 1121.46 114.688 1121.64 114.224L1123.33 114.624C1123.05 115.467 1122.58 116.115 1121.93 116.568C1121.28 117.016 1120.49 117.24 1119.57 117.24ZM1124.96 117V108.36H1126.45V110.456L1126.24 110.184C1126.35 109.907 1126.49 109.653 1126.66 109.424C1126.83 109.189 1127.03 108.997 1127.25 108.848C1127.47 108.688 1127.71 108.565 1127.98 108.48C1128.25 108.389 1128.53 108.336 1128.81 108.32C1129.09 108.299 1129.37 108.312 1129.63 108.36V109.928C1129.35 109.853 1129.03 109.832 1128.68 109.864C1128.34 109.896 1128.03 110.005 1127.74 110.192C1127.47 110.368 1127.25 110.581 1127.09 110.832C1126.94 111.083 1126.83 111.363 1126.76 111.672C1126.69 111.976 1126.65 112.299 1126.65 112.64V117H1124.96ZM1131.31 106.944V105.32H1132.98V106.944H1131.31ZM1131.31 117V108.36H1132.98V117H1131.31ZM1139.44 117.24C1138.61 117.24 1137.92 117.04 1137.36 116.64C1136.8 116.235 1136.38 115.688 1136.09 115C1135.8 114.312 1135.66 113.536 1135.66 112.672C1135.66 111.808 1135.8 111.032 1136.08 110.344C1136.37 109.656 1136.79 109.115 1137.35 108.72C1137.91 108.32 1138.59 108.12 1139.41 108.12C1140.22 108.12 1140.92 108.32 1141.51 108.72C1142.1 109.115 1142.55 109.656 1142.87 110.344C1143.19 111.027 1143.35 111.803 1143.35 112.672C1143.35 113.536 1143.19 114.315 1142.87 115.008C1142.56 115.696 1142.11 116.24 1141.52 116.64C1140.94 117.04 1140.25 117.24 1139.44 117.24ZM1135.38 117V105.48H1137.06V110.784H1136.87V117H1135.38ZM1139.21 115.728C1139.74 115.728 1140.18 115.592 1140.53 115.32C1140.88 115.048 1141.14 114.683 1141.31 114.224C1141.49 113.76 1141.58 113.243 1141.58 112.672C1141.58 112.107 1141.49 111.595 1141.31 111.136C1141.14 110.677 1140.88 110.312 1140.52 110.04C1140.16 109.768 1139.71 109.632 1139.15 109.632C1138.63 109.632 1138.2 109.76 1137.86 110.016C1137.52 110.272 1137.27 110.629 1137.11 111.088C1136.95 111.547 1136.87 112.075 1136.87 112.672C1136.87 113.269 1136.95 113.797 1137.11 114.256C1137.27 114.715 1137.52 115.075 1137.87 115.336C1138.21 115.597 1138.66 115.728 1139.21 115.728ZM1148.95 117.24C1148.09 117.24 1147.34 117.053 1146.69 116.68C1146.04 116.301 1145.54 115.776 1145.18 115.104C1144.82 114.427 1144.64 113.643 1144.64 112.752C1144.64 111.808 1144.82 110.989 1145.17 110.296C1145.53 109.603 1146.02 109.067 1146.66 108.688C1147.29 108.309 1148.03 108.12 1148.87 108.12C1149.75 108.12 1150.5 108.325 1151.12 108.736C1151.74 109.141 1152.2 109.72 1152.5 110.472C1152.81 111.224 1152.94 112.117 1152.87 113.152H1151.2V112.544C1151.19 111.541 1151 110.8 1150.62 110.32C1150.26 109.84 1149.69 109.6 1148.94 109.6C1148.1 109.6 1147.47 109.864 1147.05 110.392C1146.63 110.92 1146.42 111.683 1146.42 112.68C1146.42 113.629 1146.63 114.365 1147.05 114.888C1147.47 115.405 1148.08 115.664 1148.87 115.664C1149.39 115.664 1149.85 115.547 1150.22 115.312C1150.61 115.072 1150.91 114.731 1151.12 114.288L1152.76 114.808C1152.42 115.581 1151.91 116.181 1151.23 116.608C1150.55 117.029 1149.79 117.24 1148.95 117.24ZM1145.87 113.152V111.848H1152.04V113.152H1145.87Z" fill="white"/>
<g clip-path="url(#clip0_4632_10997)">
<path d="M157.176 137C157.176 144.18 151.355 150 144.176 150C136.996 150 131.176 144.18 131.176 137C131.176 129.82 136.996 124 144.176 124C151.355 124 157.176 129.82 157.176 137Z" fill="#FFBA08"/>
<path opacity="0.3" d="M157.176 137C157.176 144.18 151.355 150 144.176 150C136.996 150 131.176 144.18 131.176 137C131.176 129.821 136.996 124 144.176 124C151.355 124 157.176 129.821 157.176 137Z" fill="#EF4444"/>
<path d="M166.952 110.744C155.934 109.17 147.426 99.6964 147.426 88.2504C147.426 85 148.121 81.9162 149.353 79.1175C147.689 78.7277 145.96 78.5004 144.176 78.5004C131.631 78.5004 121.426 88.705 121.426 101.25V110.311C121.426 116.743 118.608 122.814 113.665 126.993C112.401 128.072 111.676 129.649 111.676 131.312C111.676 134.449 114.227 137 117.363 137H170.988C174.125 137 176.676 134.449 176.676 131.312C176.676 129.649 175.951 128.072 174.654 126.964C169.857 122.905 167.075 117.012 166.952 110.744Z" fill="url(#paint0_linear_4632_10997)"/>
<path d="M186.426 88.2502C186.426 97.2248 179.151 104.5 170.176 104.5C161.201 104.5 153.926 97.2248 153.926 88.2502C153.926 79.2756 161.201 72 170.176 72C179.151 72 186.426 79.2756 186.426 88.2502Z" fill="url(#paint1_linear_4632_10997)"/>
</g>
<path d="M228.208 103.36C226.928 103.36 225.772 103.136 224.74 102.688C223.716 102.232 222.872 101.584 222.208 100.744C221.552 99.896 221.136 98.888 220.96 97.72L224.368 97.216C224.608 98.208 225.104 98.972 225.856 99.508C226.608 100.044 227.464 100.312 228.424 100.312C228.96 100.312 229.48 100.228 229.984 100.06C230.488 99.892 230.9 99.644 231.22 99.316C231.548 98.988 231.712 98.584 231.712 98.104C231.712 97.928 231.684 97.76 231.628 97.6C231.58 97.432 231.496 97.276 231.376 97.132C231.256 96.988 231.084 96.852 230.86 96.724C230.644 96.596 230.368 96.48 230.032 96.376L225.544 95.056C225.208 94.96 224.816 94.824 224.368 94.648C223.928 94.472 223.5 94.22 223.084 93.892C222.668 93.564 222.32 93.132 222.04 92.596C221.768 92.052 221.632 91.368 221.632 90.544C221.632 89.384 221.924 88.42 222.508 87.652C223.092 86.884 223.872 86.312 224.848 85.936C225.824 85.56 226.904 85.376 228.088 85.384C229.28 85.4 230.344 85.604 231.28 85.996C232.216 86.388 233 86.96 233.632 87.712C234.264 88.456 234.72 89.368 235 90.448L231.472 91.048C231.344 90.488 231.108 90.016 230.764 89.632C230.42 89.248 230.008 88.956 229.528 88.756C229.056 88.556 228.56 88.448 228.04 88.432C227.528 88.416 227.044 88.488 226.588 88.648C226.14 88.8 225.772 89.024 225.484 89.32C225.204 89.616 225.064 89.968 225.064 90.376C225.064 90.752 225.18 91.06 225.412 91.3C225.644 91.532 225.936 91.72 226.288 91.864C226.64 92.008 227 92.128 227.368 92.224L230.368 93.04C230.816 93.16 231.312 93.32 231.856 93.52C232.4 93.712 232.92 93.984 233.416 94.336C233.92 94.68 234.332 95.136 234.652 95.704C234.98 96.272 235.144 96.992 235.144 97.864C235.144 98.792 234.948 99.604 234.556 100.3C234.172 100.988 233.652 101.56 232.996 102.016C232.34 102.464 231.596 102.8 230.764 103.024C229.94 103.248 229.088 103.36 228.208 103.36ZM242.606 103.384C241.59 103.384 240.762 103.212 240.122 102.868C239.482 102.524 238.982 102.088 238.622 101.56C238.27 101.032 238.018 100.484 237.866 99.916C237.714 99.34 237.622 98.816 237.59 98.344C237.558 97.872 237.542 97.528 237.542 97.312V90.04H240.854V96.16C240.854 96.456 240.87 96.836 240.902 97.3C240.934 97.756 241.034 98.216 241.202 98.68C241.37 99.144 241.642 99.532 242.018 99.844C242.402 100.156 242.942 100.312 243.638 100.312C243.918 100.312 244.218 100.268 244.538 100.18C244.858 100.092 245.158 99.924 245.438 99.676C245.718 99.42 245.946 99.048 246.122 98.56C246.306 98.064 246.398 97.416 246.398 96.616L248.27 97.504C248.27 98.528 248.062 99.488 247.646 100.384C247.23 101.28 246.602 102.004 245.762 102.556C244.93 103.108 243.878 103.384 242.606 103.384ZM246.806 103V98.704H246.398V90.04H249.686V103H246.806ZM259.399 103.36C258.111 103.36 257.035 103.06 256.171 102.46C255.307 101.86 254.655 101.044 254.215 100.012C253.783 98.98 253.567 97.816 253.567 96.52C253.567 95.224 253.783 94.06 254.215 93.028C254.647 91.996 255.283 91.18 256.123 90.58C256.963 89.98 257.999 89.68 259.231 89.68C260.471 89.68 261.551 89.976 262.471 90.568C263.391 91.16 264.103 91.972 264.607 93.004C265.119 94.028 265.375 95.2 265.375 96.52C265.375 97.816 265.123 98.98 264.619 100.012C264.123 101.044 263.427 101.86 262.531 102.46C261.635 103.06 260.591 103.36 259.399 103.36ZM253.015 103V85.72H256.303V94.12H255.895V103H253.015ZM258.871 100.456C259.575 100.456 260.151 100.28 260.599 99.928C261.047 99.576 261.379 99.104 261.595 98.512C261.811 97.912 261.919 97.248 261.919 96.52C261.919 95.8 261.807 95.144 261.583 94.552C261.359 93.952 261.011 93.476 260.539 93.124C260.075 92.764 259.479 92.584 258.751 92.584C258.071 92.584 257.519 92.748 257.095 93.076C256.679 93.404 256.375 93.864 256.183 94.456C255.991 95.048 255.895 95.736 255.895 96.52C255.895 97.304 255.991 97.992 256.183 98.584C256.375 99.176 256.687 99.636 257.119 99.964C257.559 100.292 258.143 100.456 258.871 100.456ZM272.728 103.36C271.096 103.36 269.776 102.992 268.768 102.256C267.768 101.512 267.16 100.464 266.944 99.112L270.28 98.608C270.416 99.216 270.716 99.692 271.18 100.036C271.652 100.38 272.248 100.552 272.968 100.552C273.56 100.552 274.016 100.44 274.336 100.216C274.656 99.984 274.816 99.664 274.816 99.256C274.816 99 274.752 98.796 274.624 98.644C274.496 98.484 274.208 98.328 273.76 98.176C273.32 98.024 272.632 97.824 271.696 97.576C270.64 97.304 269.796 97 269.164 96.664C268.532 96.328 268.076 95.928 267.796 95.464C267.516 94.992 267.376 94.424 267.376 93.76C267.376 92.928 267.588 92.208 268.012 91.6C268.436 90.984 269.032 90.512 269.8 90.184C270.576 89.848 271.488 89.68 272.536 89.68C273.552 89.68 274.452 89.836 275.236 90.148C276.02 90.46 276.652 90.904 277.132 91.48C277.62 92.056 277.92 92.736 278.032 93.52L274.696 94.12C274.64 93.64 274.432 93.26 274.072 92.98C273.712 92.7 273.224 92.536 272.608 92.488C272.008 92.448 271.524 92.528 271.156 92.728C270.796 92.928 270.616 93.216 270.616 93.592C270.616 93.816 270.692 94.004 270.844 94.156C271.004 94.308 271.328 94.464 271.816 94.624C272.312 94.784 273.064 94.992 274.072 95.248C275.056 95.504 275.844 95.804 276.436 96.148C277.036 96.484 277.472 96.892 277.744 97.372C278.016 97.844 278.152 98.416 278.152 99.088C278.152 100.416 277.672 101.46 276.712 102.22C275.752 102.98 274.424 103.36 272.728 103.36ZM286.501 103.36C285.157 103.36 284.005 103.06 283.045 102.46C282.085 101.86 281.349 101.044 280.837 100.012C280.325 98.98 280.069 97.816 280.069 96.52C280.069 95.208 280.333 94.036 280.861 93.004C281.397 91.972 282.149 91.16 283.117 90.568C284.085 89.976 285.229 89.68 286.549 89.68C288.077 89.68 289.357 90.068 290.389 90.844C291.429 91.612 292.093 92.664 292.381 94L289.117 94.864C288.925 94.192 288.589 93.668 288.109 93.292C287.637 92.916 287.101 92.728 286.501 92.728C285.813 92.728 285.249 92.896 284.809 93.232C284.369 93.56 284.045 94.012 283.837 94.588C283.629 95.156 283.525 95.8 283.525 96.52C283.525 97.648 283.773 98.564 284.269 99.268C284.773 99.964 285.517 100.312 286.501 100.312C287.237 100.312 287.797 100.144 288.181 99.808C288.565 99.472 288.853 98.992 289.045 98.368L292.381 99.064C292.013 100.44 291.317 101.5 290.293 102.244C289.269 102.988 288.005 103.36 286.501 103.36ZM294.782 103V90.04H297.662V93.208L297.35 92.8C297.518 92.352 297.742 91.944 298.022 91.576C298.302 91.208 298.646 90.904 299.054 90.664C299.366 90.472 299.706 90.324 300.074 90.22C300.442 90.108 300.822 90.04 301.214 90.016C301.606 89.984 301.998 89.992 302.39 90.04V93.088C302.03 92.976 301.61 92.94 301.13 92.98C300.658 93.012 300.23 93.12 299.846 93.304C299.462 93.48 299.138 93.716 298.874 94.012C298.61 94.3 298.41 94.644 298.274 95.044C298.138 95.436 298.07 95.88 298.07 96.376V103H294.782ZM304.912 88.24V85.36H308.176V88.24H304.912ZM304.912 103V90.04H308.176V103H304.912ZM318.134 103.36C316.846 103.36 315.77 103.06 314.906 102.46C314.042 101.86 313.39 101.044 312.95 100.012C312.518 98.98 312.302 97.816 312.302 96.52C312.302 95.224 312.518 94.06 312.95 93.028C313.382 91.996 314.018 91.18 314.858 90.58C315.698 89.98 316.734 89.68 317.966 89.68C319.206 89.68 320.286 89.976 321.206 90.568C322.126 91.16 322.838 91.972 323.342 93.004C323.854 94.028 324.11 95.2 324.11 96.52C324.11 97.816 323.858 98.98 323.354 100.012C322.858 101.044 322.162 101.86 321.266 102.46C320.37 103.06 319.326 103.36 318.134 103.36ZM311.75 103V85.72H315.038V94.12H314.63V103H311.75ZM317.606 100.456C318.31 100.456 318.886 100.28 319.334 99.928C319.782 99.576 320.114 99.104 320.33 98.512C320.546 97.912 320.654 97.248 320.654 96.52C320.654 95.8 320.542 95.144 320.318 94.552C320.094 93.952 319.746 93.476 319.274 93.124C318.81 92.764 318.214 92.584 317.486 92.584C316.806 92.584 316.254 92.748 315.83 93.076C315.414 93.404 315.11 93.864 314.918 94.456C314.726 95.048 314.63 95.736 314.63 96.52C314.63 97.304 314.726 97.992 314.918 98.584C315.11 99.176 315.422 99.636 315.854 99.964C316.294 100.292 316.878 100.456 317.606 100.456ZM332.774 103.36C331.446 103.36 330.274 103.076 329.258 102.508C328.25 101.932 327.458 101.144 326.882 100.144C326.314 99.136 326.03 97.984 326.03 96.688C326.03 95.272 326.31 94.04 326.87 92.992C327.43 91.944 328.202 91.132 329.186 90.556C330.17 89.972 331.302 89.68 332.582 89.68C333.942 89.68 335.098 90 336.05 90.64C337.002 91.28 337.706 92.18 338.162 93.34C338.618 94.5 338.778 95.864 338.642 97.432H335.414V96.232C335.414 94.912 335.202 93.964 334.778 93.388C334.362 92.804 333.678 92.512 332.726 92.512C331.614 92.512 330.794 92.852 330.266 93.532C329.746 94.204 329.486 95.2 329.486 96.52C329.486 97.728 329.746 98.664 330.266 99.328C330.794 99.984 331.566 100.312 332.582 100.312C333.222 100.312 333.77 100.172 334.226 99.892C334.682 99.612 335.03 99.208 335.27 98.68L338.534 99.616C338.046 100.8 337.274 101.72 336.218 102.376C335.17 103.032 334.022 103.36 332.774 103.36ZM328.478 97.432V95.008H337.07V97.432H328.478ZM353.933 103C353.037 103.168 352.157 103.24 351.293 103.216C350.437 103.2 349.669 103.052 348.989 102.772C348.317 102.484 347.805 102.024 347.453 101.392C347.133 100.8 346.965 100.2 346.949 99.592C346.933 98.976 346.925 98.28 346.925 97.504V86.44H350.189V97.312C350.189 97.816 350.193 98.272 350.201 98.68C350.217 99.08 350.301 99.4 350.453 99.64C350.741 100.096 351.201 100.344 351.833 100.384C352.465 100.424 353.165 100.392 353.933 100.288V103ZM344.717 92.56V90.04H353.933V92.56H344.717ZM361.95 103.36C360.646 103.36 359.502 103.068 358.518 102.484C357.534 101.9 356.766 101.096 356.214 100.072C355.67 99.04 355.398 97.856 355.398 96.52C355.398 95.168 355.678 93.98 356.238 92.956C356.798 91.924 357.57 91.12 358.554 90.544C359.538 89.968 360.67 89.68 361.95 89.68C363.254 89.68 364.398 89.972 365.382 90.556C366.374 91.14 367.146 91.948 367.698 92.98C368.25 94.004 368.526 95.184 368.526 96.52C368.526 97.864 368.246 99.052 367.686 100.084C367.134 101.108 366.362 101.912 365.37 102.496C364.386 103.072 363.246 103.36 361.95 103.36ZM361.95 100.312C362.998 100.312 363.778 99.96 364.29 99.256C364.81 98.544 365.07 97.632 365.07 96.52C365.07 95.368 364.806 94.448 364.278 93.76C363.758 93.072 362.982 92.728 361.95 92.728C361.238 92.728 360.654 92.888 360.198 93.208C359.742 93.528 359.402 93.972 359.178 94.54C358.962 95.108 358.854 95.768 358.854 96.52C358.854 97.68 359.114 98.604 359.634 99.292C360.162 99.972 360.934 100.312 361.95 100.312ZM381.801 103.36C380.497 103.36 379.353 103.068 378.369 102.484C377.385 101.9 376.617 101.096 376.065 100.072C375.521 99.04 375.249 97.856 375.249 96.52C375.249 95.168 375.529 93.98 376.089 92.956C376.649 91.924 377.421 91.12 378.405 90.544C379.389 89.968 380.521 89.68 381.801 89.68C383.105 89.68 384.249 89.972 385.233 90.556C386.225 91.14 386.997 91.948 387.549 92.98C388.101 94.004 388.377 95.184 388.377 96.52C388.377 97.864 388.097 99.052 387.537 100.084C386.985 101.108 386.213 101.912 385.221 102.496C384.237 103.072 383.097 103.36 381.801 103.36ZM381.801 100.312C382.849 100.312 383.629 99.96 384.141 99.256C384.661 98.544 384.921 97.632 384.921 96.52C384.921 95.368 384.657 94.448 384.129 93.76C383.609 93.072 382.833 92.728 381.801 92.728C381.089 92.728 380.505 92.888 380.049 93.208C379.593 93.528 379.253 93.972 379.029 94.54C378.813 95.108 378.705 95.768 378.705 96.52C378.705 97.68 378.965 98.604 379.485 99.292C380.013 99.972 380.785 100.312 381.801 100.312ZM395.84 103.384C394.824 103.384 393.996 103.212 393.356 102.868C392.716 102.524 392.216 102.088 391.856 101.56C391.504 101.032 391.252 100.484 391.1 99.916C390.948 99.34 390.856 98.816 390.824 98.344C390.792 97.872 390.776 97.528 390.776 97.312V90.04H394.088V96.16C394.088 96.456 394.104 96.836 394.136 97.3C394.168 97.756 394.268 98.216 394.436 98.68C394.604 99.144 394.876 99.532 395.252 99.844C395.636 100.156 396.176 100.312 396.872 100.312C397.152 100.312 397.452 100.268 397.772 100.18C398.092 100.092 398.392 99.924 398.672 99.676C398.952 99.42 399.18 99.048 399.356 98.56C399.54 98.064 399.632 97.416 399.632 96.616L401.504 97.504C401.504 98.528 401.296 99.488 400.88 100.384C400.464 101.28 399.836 102.004 398.996 102.556C398.164 103.108 397.112 103.384 395.84 103.384ZM400.04 103V98.704H399.632V90.04H402.92V103H400.04ZM406.274 103V90.04H409.154V93.208L408.842 92.8C409.01 92.352 409.234 91.944 409.514 91.576C409.794 91.208 410.138 90.904 410.546 90.664C410.858 90.472 411.198 90.324 411.566 90.22C411.934 90.108 412.314 90.04 412.706 90.016C413.098 89.984 413.49 89.992 413.882 90.04V93.088C413.522 92.976 413.102 92.94 412.622 92.98C412.15 93.012 411.722 93.12 411.338 93.304C410.954 93.48 410.63 93.716 410.366 94.012C410.102 94.3 409.902 94.644 409.766 95.044C409.63 95.436 409.562 95.88 409.562 96.376V103H406.274ZM429.801 103V96.88C429.801 96.584 429.785 96.208 429.753 95.752C429.721 95.288 429.621 94.824 429.453 94.36C429.285 93.896 429.009 93.508 428.625 93.196C428.249 92.884 427.713 92.728 427.017 92.728C426.737 92.728 426.437 92.772 426.117 92.86C425.797 92.948 425.497 93.12 425.217 93.376C424.937 93.624 424.705 93.992 424.521 94.48C424.345 94.968 424.257 95.616 424.257 96.424L422.385 95.536C422.385 94.512 422.593 93.552 423.009 92.656C423.425 91.76 424.049 91.036 424.881 90.484C425.721 89.932 426.777 89.656 428.049 89.656C429.065 89.656 429.893 89.828 430.533 90.172C431.173 90.516 431.669 90.952 432.021 91.48C432.381 92.008 432.637 92.56 432.789 93.136C432.941 93.704 433.033 94.224 433.065 94.696C433.097 95.168 433.113 95.512 433.113 95.728V103H429.801ZM420.945 103V90.04H423.849V94.336H424.257V103H420.945ZM442.017 103.36C440.689 103.36 439.517 103.076 438.501 102.508C437.493 101.932 436.701 101.144 436.125 100.144C435.557 99.136 435.273 97.984 435.273 96.688C435.273 95.272 435.553 94.04 436.113 92.992C436.673 91.944 437.445 91.132 438.429 90.556C439.413 89.972 440.545 89.68 441.825 89.68C443.185 89.68 444.341 90 445.293 90.64C446.245 91.28 446.949 92.18 447.405 93.34C447.861 94.5 448.021 95.864 447.885 97.432H444.657V96.232C444.657 94.912 444.445 93.964 444.021 93.388C443.605 92.804 442.921 92.512 441.969 92.512C440.857 92.512 440.037 92.852 439.509 93.532C438.989 94.204 438.729 95.2 438.729 96.52C438.729 97.728 438.989 98.664 439.509 99.328C440.037 99.984 440.809 100.312 441.825 100.312C442.465 100.312 443.013 100.172 443.469 99.892C443.925 99.612 444.273 99.208 444.513 98.68L447.777 99.616C447.289 100.8 446.517 101.72 445.461 102.376C444.413 103.032 443.265 103.36 442.017 103.36ZM437.721 97.432V95.008H446.312V97.432H437.721ZM452.885 103L448.925 90.016L452.117 90.04L454.469 97.768L456.857 90.04H459.569L461.957 97.768L464.309 90.04H467.501L463.541 103H461.045L458.213 94.552L455.381 103H452.885ZM474.267 103.36C472.635 103.36 471.315 102.992 470.307 102.256C469.307 101.512 468.699 100.464 468.483 99.112L471.819 98.608C471.955 99.216 472.255 99.692 472.719 100.036C473.191 100.38 473.787 100.552 474.507 100.552C475.099 100.552 475.555 100.44 475.875 100.216C476.195 99.984 476.355 99.664 476.355 99.256C476.355 99 476.291 98.796 476.163 98.644C476.035 98.484 475.747 98.328 475.299 98.176C474.859 98.024 474.171 97.824 473.235 97.576C472.179 97.304 471.335 97 470.703 96.664C470.071 96.328 469.615 95.928 469.335 95.464C469.055 94.992 468.915 94.424 468.915 93.76C468.915 92.928 469.127 92.208 469.551 91.6C469.975 90.984 470.571 90.512 471.339 90.184C472.115 89.848 473.027 89.68 474.075 89.68C475.091 89.68 475.991 89.836 476.775 90.148C477.559 90.46 478.191 90.904 478.671 91.48C479.159 92.056 479.459 92.736 479.571 93.52L476.235 94.12C476.179 93.64 475.971 93.26 475.611 92.98C475.251 92.7 474.763 92.536 474.147 92.488C473.547 92.448 473.063 92.528 472.695 92.728C472.335 92.928 472.155 93.216 472.155 93.592C472.155 93.816 472.231 94.004 472.383 94.156C472.543 94.308 472.867 94.464 473.355 94.624C473.851 94.784 474.603 94.992 475.611 95.248C476.595 95.504 477.383 95.804 477.975 96.148C478.575 96.484 479.011 96.892 479.283 97.372C479.555 97.844 479.691 98.416 479.691 99.088C479.691 100.416 479.211 101.46 478.251 102.22C477.291 102.98 475.963 103.36 474.267 103.36ZM482.568 103V85.36H485.832V103H482.568ZM495.454 103.36C494.126 103.36 492.954 103.076 491.938 102.508C490.93 101.932 490.138 101.144 489.562 100.144C488.994 99.136 488.71 97.984 488.71 96.688C488.71 95.272 488.99 94.04 489.55 92.992C490.11 91.944 490.882 91.132 491.866 90.556C492.85 89.972 493.982 89.68 495.262 89.68C496.622 89.68 497.778 90 498.73 90.64C499.682 91.28 500.386 92.18 500.842 93.34C501.298 94.5 501.458 95.864 501.322 97.432H498.094V96.232C498.094 94.912 497.882 93.964 497.458 93.388C497.042 92.804 496.358 92.512 495.406 92.512C494.294 92.512 493.474 92.852 492.946 93.532C492.426 94.204 492.166 95.2 492.166 96.52C492.166 97.728 492.426 98.664 492.946 99.328C493.474 99.984 494.246 100.312 495.262 100.312C495.902 100.312 496.45 100.172 496.906 99.892C497.362 99.612 497.71 99.208 497.95 98.68L501.214 99.616C500.726 100.8 499.954 101.72 498.898 102.376C497.85 103.032 496.702 103.36 495.454 103.36ZM491.158 97.432V95.008H499.75V97.432H491.158ZM511.808 103C510.912 103.168 510.032 103.24 509.168 103.216C508.312 103.2 507.544 103.052 506.864 102.772C506.192 102.484 505.68 102.024 505.328 101.392C505.008 100.8 504.84 100.2 504.824 99.592C504.808 98.976 504.8 98.28 504.8 97.504V86.44H508.064V97.312C508.064 97.816 508.068 98.272 508.076 98.68C508.092 99.08 508.176 99.4 508.328 99.64C508.616 100.096 509.076 100.344 509.708 100.384C510.34 100.424 511.04 100.392 511.808 100.288V103ZM502.592 92.56V90.04H511.808V92.56H502.592ZM522.472 103C521.576 103.168 520.696 103.24 519.832 103.216C518.976 103.2 518.208 103.052 517.528 102.772C516.856 102.484 516.344 102.024 515.992 101.392C515.672 100.8 515.504 100.2 515.488 99.592C515.472 98.976 515.464 98.28 515.464 97.504V86.44H518.728V97.312C518.728 97.816 518.732 98.272 518.74 98.68C518.756 99.08 518.84 99.4 518.992 99.64C519.28 100.096 519.74 100.344 520.372 100.384C521.004 100.424 521.704 100.392 522.472 100.288V103ZM513.256 92.56V90.04H522.472V92.56H513.256ZM530.681 103.36C529.353 103.36 528.181 103.076 527.165 102.508C526.157 101.932 525.365 101.144 524.789 100.144C524.221 99.136 523.937 97.984 523.937 96.688C523.937 95.272 524.217 94.04 524.777 92.992C525.337 91.944 526.109 91.132 527.093 90.556C528.077 89.972 529.209 89.68 530.489 89.68C531.849 89.68 533.005 90 533.957 90.64C534.909 91.28 535.613 92.18 536.069 93.34C536.525 94.5 536.685 95.864 536.549 97.432H533.321V96.232C533.321 94.912 533.109 93.964 532.685 93.388C532.269 92.804 531.585 92.512 530.633 92.512C529.521 92.512 528.701 92.852 528.173 93.532C527.653 94.204 527.393 95.2 527.393 96.52C527.393 97.728 527.653 98.664 528.173 99.328C528.701 99.984 529.473 100.312 530.489 100.312C531.129 100.312 531.677 100.172 532.133 99.892C532.589 99.612 532.937 99.208 533.177 98.68L536.441 99.616C535.953 100.8 535.181 101.72 534.125 102.376C533.077 103.032 531.929 103.36 530.681 103.36ZM526.385 97.432V95.008H534.977V97.432H526.385ZM539.258 103V90.04H542.138V93.208L541.826 92.8C541.994 92.352 542.218 91.944 542.498 91.576C542.778 91.208 543.122 90.904 543.53 90.664C543.842 90.472 544.182 90.324 544.55 90.22C544.918 90.108 545.298 90.04 545.69 90.016C546.082 89.984 546.474 89.992 546.866 90.04V93.088C546.506 92.976 546.086 92.94 545.606 92.98C545.134 93.012 544.706 93.12 544.322 93.304C543.938 93.48 543.614 93.716 543.35 94.012C543.086 94.3 542.886 94.644 542.75 95.044C542.614 95.436 542.546 95.88 542.546 96.376V103H539.258ZM561.729 103C560.833 103.168 559.953 103.24 559.089 103.216C558.233 103.2 557.465 103.052 556.785 102.772C556.113 102.484 555.601 102.024 555.249 101.392C554.929 100.8 554.761 100.2 554.745 99.592C554.729 98.976 554.721 98.28 554.721 97.504V86.44H557.985V97.312C557.985 97.816 557.989 98.272 557.997 98.68C558.013 99.08 558.097 99.4 558.249 99.64C558.537 100.096 558.997 100.344 559.629 100.384C560.261 100.424 560.961 100.392 561.729 100.288V103ZM552.513 92.56V90.04H561.729V92.56H552.513ZM569.746 103.36C568.442 103.36 567.298 103.068 566.314 102.484C565.33 101.9 564.562 101.096 564.01 100.072C563.466 99.04 563.194 97.856 563.194 96.52C563.194 95.168 563.474 93.98 564.034 92.956C564.594 91.924 565.366 91.12 566.35 90.544C567.334 89.968 568.466 89.68 569.746 89.68C571.05 89.68 572.194 89.972 573.178 90.556C574.17 91.14 574.942 91.948 575.494 92.98C576.046 94.004 576.322 95.184 576.322 96.52C576.322 97.864 576.042 99.052 575.482 100.084C574.93 101.108 574.158 101.912 573.166 102.496C572.182 103.072 571.042 103.36 569.746 103.36ZM569.746 100.312C570.794 100.312 571.574 99.96 572.086 99.256C572.606 98.544 572.866 97.632 572.866 96.52C572.866 95.368 572.602 94.448 572.074 93.76C571.554 93.072 570.778 92.728 569.746 92.728C569.034 92.728 568.45 92.888 567.994 93.208C567.538 93.528 567.198 93.972 566.974 94.54C566.758 95.108 566.65 95.768 566.65 96.52C566.65 97.68 566.91 98.604 567.43 99.292C567.958 99.972 568.73 100.312 569.746 100.312ZM588.83 103.36C587.198 103.36 585.878 102.992 584.87 102.256C583.87 101.512 583.262 100.464 583.046 99.112L586.382 98.608C586.518 99.216 586.818 99.692 587.282 100.036C587.754 100.38 588.35 100.552 589.07 100.552C589.662 100.552 590.118 100.44 590.438 100.216C590.758 99.984 590.918 99.664 590.918 99.256C590.918 99 590.854 98.796 590.726 98.644C590.598 98.484 590.31 98.328 589.862 98.176C589.422 98.024 588.734 97.824 587.798 97.576C586.742 97.304 585.898 97 585.266 96.664C584.634 96.328 584.178 95.928 583.898 95.464C583.618 94.992 583.478 94.424 583.478 93.76C583.478 92.928 583.69 92.208 584.114 91.6C584.538 90.984 585.134 90.512 585.902 90.184C586.678 89.848 587.59 89.68 588.638 89.68C589.654 89.68 590.554 89.836 591.338 90.148C592.122 90.46 592.754 90.904 593.234 91.48C593.722 92.056 594.022 92.736 594.134 93.52L590.798 94.12C590.742 93.64 590.534 93.26 590.174 92.98C589.814 92.7 589.326 92.536 588.71 92.488C588.11 92.448 587.626 92.528 587.258 92.728C586.898 92.928 586.718 93.216 586.718 93.592C586.718 93.816 586.794 94.004 586.946 94.156C587.106 94.308 587.43 94.464 587.918 94.624C588.414 94.784 589.166 94.992 590.174 95.248C591.158 95.504 591.946 95.804 592.538 96.148C593.138 96.484 593.574 96.892 593.846 97.372C594.118 97.844 594.254 98.416 594.254 99.088C594.254 100.416 593.774 101.46 592.814 102.22C591.854 102.98 590.526 103.36 588.83 103.36ZM604.667 103C603.771 103.168 602.891 103.24 602.027 103.216C601.171 103.2 600.403 103.052 599.723 102.772C599.051 102.484 598.539 102.024 598.187 101.392C597.867 100.8 597.699 100.2 597.683 99.592C597.667 98.976 597.659 98.28 597.659 97.504V86.44H600.923V97.312C600.923 97.816 600.927 98.272 600.935 98.68C600.951 99.08 601.035 99.4 601.187 99.64C601.475 100.096 601.935 100.344 602.567 100.384C603.199 100.424 603.899 100.392 604.667 100.288V103ZM595.451 92.56V90.04H604.667V92.56H595.451ZM611.155 103.36C610.227 103.36 609.439 103.184 608.791 102.832C608.151 102.472 607.663 101.996 607.327 101.404C606.999 100.804 606.835 100.144 606.835 99.424C606.835 98.824 606.927 98.276 607.111 97.78C607.295 97.284 607.591 96.848 607.999 96.472C608.415 96.088 608.971 95.768 609.667 95.512C610.147 95.336 610.719 95.18 611.383 95.044C612.047 94.908 612.799 94.78 613.639 94.66C614.479 94.532 615.403 94.392 616.411 94.24L615.235 94.888C615.235 94.12 615.051 93.556 614.683 93.196C614.315 92.836 613.699 92.656 612.835 92.656C612.355 92.656 611.855 92.772 611.335 93.004C610.815 93.236 610.451 93.648 610.243 94.24L607.291 93.304C607.619 92.232 608.235 91.36 609.139 90.688C610.043 90.016 611.275 89.68 612.835 89.68C613.979 89.68 614.995 89.856 615.883 90.208C616.771 90.56 617.443 91.168 617.899 92.032C618.155 92.512 618.307 92.992 618.355 93.472C618.403 93.952 618.427 94.488 618.427 95.08V103H615.571V100.336L615.979 100.888C615.347 101.76 614.663 102.392 613.927 102.784C613.199 103.168 612.275 103.36 611.155 103.36ZM611.851 100.792C612.451 100.792 612.955 100.688 613.363 100.48C613.779 100.264 614.107 100.02 614.347 99.748C614.595 99.476 614.763 99.248 614.851 99.064C615.019 98.712 615.115 98.304 615.139 97.84C615.171 97.368 615.187 96.976 615.187 96.664L616.147 96.904C615.179 97.064 614.395 97.2 613.795 97.312C613.195 97.416 612.711 97.512 612.343 97.6C611.975 97.688 611.651 97.784 611.371 97.888C611.051 98.016 610.791 98.156 610.591 98.308C610.399 98.452 610.255 98.612 610.159 98.788C610.071 98.964 610.027 99.16 610.027 99.376C610.027 99.672 610.099 99.928 610.243 100.144C610.395 100.352 610.607 100.512 610.879 100.624C611.151 100.736 611.475 100.792 611.851 100.792ZM622.477 108.76L624.973 101.896L625.021 103.912L619.381 90.04H622.765L626.557 99.856H625.789L629.557 90.04H632.821L625.501 108.76H622.477ZM221.92 122.24V119.36H225.184V122.24H221.92ZM221.92 137V124.04H225.184V137H221.92ZM237.614 137V130.88C237.614 130.584 237.598 130.208 237.566 129.752C237.534 129.288 237.434 128.824 237.266 128.36C237.098 127.896 236.822 127.508 236.438 127.196C236.062 126.884 235.526 126.728 234.83 126.728C234.55 126.728 234.25 126.772 233.93 126.86C233.61 126.948 233.31 127.12 233.03 127.376C232.75 127.624 232.518 127.992 232.334 128.48C232.158 128.968 232.07 129.616 232.07 130.424L230.198 129.536C230.198 128.512 230.406 127.552 230.822 126.656C231.238 125.76 231.862 125.036 232.694 124.484C233.534 123.932 234.59 123.656 235.862 123.656C236.878 123.656 237.706 123.828 238.346 124.172C238.986 124.516 239.482 124.952 239.834 125.48C240.194 126.008 240.45 126.56 240.602 127.136C240.754 127.704 240.846 128.224 240.878 128.696C240.91 129.168 240.926 129.512 240.926 129.728V137H237.614ZM228.758 137V124.04H231.662V128.336H232.07V137H228.758ZM245.119 137V124.088C245.119 123.76 245.127 123.388 245.143 122.972C245.159 122.556 245.223 122.136 245.335 121.712C245.455 121.288 245.671 120.904 245.983 120.56C246.383 120.112 246.815 119.808 247.279 119.648C247.751 119.48 248.207 119.392 248.647 119.384C249.087 119.368 249.463 119.36 249.775 119.36H251.383V122H249.895C249.383 122 249.003 122.132 248.755 122.396C248.507 122.652 248.383 122.96 248.383 123.32V137H245.119ZM243.079 126.56V124.04H251.383V126.56H243.079ZM258.66 137.36C257.356 137.36 256.212 137.068 255.228 136.484C254.244 135.9 253.476 135.096 252.924 134.072C252.38 133.04 252.108 131.856 252.108 130.52C252.108 129.168 252.388 127.98 252.948 126.956C253.508 125.924 254.28 125.12 255.264 124.544C256.248 123.968 257.38 123.68 258.66 123.68C259.964 123.68 261.108 123.972 262.092 124.556C263.084 125.14 263.856 125.948 264.408 126.98C264.96 128.004 265.236 129.184 265.236 130.52C265.236 131.864 264.956 133.052 264.396 134.084C263.844 135.108 263.072 135.912 262.08 136.496C261.096 137.072 259.956 137.36 258.66 137.36ZM258.66 134.312C259.708 134.312 260.488 133.96 261 133.256C261.52 132.544 261.78 131.632 261.78 130.52C261.78 129.368 261.516 128.448 260.988 127.76C260.468 127.072 259.692 126.728 258.66 126.728C257.948 126.728 257.364 126.888 256.908 127.208C256.452 127.528 256.112 127.972 255.888 128.54C255.672 129.108 255.564 129.768 255.564 130.52C255.564 131.68 255.824 132.604 256.344 133.292C256.872 133.972 257.644 134.312 258.66 134.312ZM267.875 137V124.04H270.755V127.208L270.443 126.8C270.611 126.352 270.835 125.944 271.115 125.576C271.395 125.208 271.739 124.904 272.147 124.664C272.459 124.472 272.799 124.324 273.167 124.22C273.535 124.108 273.915 124.04 274.307 124.016C274.699 123.984 275.091 123.992 275.483 124.04V127.088C275.123 126.976 274.703 126.94 274.223 126.98C273.751 127.012 273.323 127.12 272.939 127.304C272.555 127.48 272.231 127.716 271.967 128.012C271.703 128.3 271.503 128.644 271.367 129.044C271.231 129.436 271.163 129.88 271.163 130.376V137H267.875ZM293.366 137V129.344C293.366 128.488 293.162 127.824 292.754 127.352C292.354 126.872 291.798 126.632 291.086 126.632C290.63 126.632 290.234 126.74 289.898 126.956C289.562 127.164 289.298 127.46 289.106 127.844C288.922 128.22 288.83 128.656 288.83 129.152L287.462 128.24C287.462 127.352 287.67 126.568 288.086 125.888C288.51 125.208 289.074 124.68 289.778 124.304C290.49 123.92 291.278 123.728 292.142 123.728C293.622 123.728 294.738 124.168 295.49 125.048C296.25 125.92 296.63 127.064 296.63 128.48V137H293.366ZM277.742 137V124.04H280.622V128.336H281.03V137H277.742ZM285.566 137V129.344C285.566 128.488 285.362 127.824 284.954 127.352C284.554 126.872 283.998 126.632 283.286 126.632C282.606 126.632 282.058 126.868 281.642 127.34C281.234 127.804 281.03 128.408 281.03 129.152L279.662 128.192C279.662 127.344 279.874 126.584 280.298 125.912C280.722 125.24 281.29 124.708 282.002 124.316C282.722 123.924 283.526 123.728 284.414 123.728C285.43 123.728 286.262 123.944 286.91 124.376C287.566 124.808 288.05 125.384 288.362 126.104C288.674 126.824 288.83 127.616 288.83 128.48V137H285.566ZM305.54 137.36C304.212 137.36 303.04 137.076 302.024 136.508C301.016 135.932 300.224 135.144 299.648 134.144C299.08 133.136 298.796 131.984 298.796 130.688C298.796 129.272 299.076 128.04 299.636 126.992C300.196 125.944 300.968 125.132 301.952 124.556C302.936 123.972 304.068 123.68 305.348 123.68C306.708 123.68 307.864 124 308.816 124.64C309.768 125.28 310.472 126.18 310.928 127.34C311.384 128.5 311.544 129.864 311.408 131.432H308.18V130.232C308.18 128.912 307.968 127.964 307.544 127.388C307.128 126.804 306.444 126.512 305.492 126.512C304.38 126.512 303.56 126.852 303.032 127.532C302.512 128.204 302.252 129.2 302.252 130.52C302.252 131.728 302.512 132.664 303.032 133.328C303.56 133.984 304.332 134.312 305.348 134.312C305.988 134.312 306.536 134.172 306.992 133.892C307.448 133.612 307.796 133.208 308.036 132.68L311.3 133.616C310.812 134.8 310.04 135.72 308.984 136.376C307.936 137.032 306.788 137.36 305.54 137.36ZM301.244 131.432V129.008H309.836V131.432H301.244ZM319.374 137.36C318.182 137.36 317.138 137.06 316.242 136.46C315.346 135.86 314.646 135.044 314.142 134.012C313.646 132.98 313.398 131.816 313.398 130.52C313.398 129.2 313.65 128.028 314.154 127.004C314.666 125.972 315.382 125.16 316.302 124.568C317.222 123.976 318.302 123.68 319.542 123.68C320.774 123.68 321.81 123.98 322.65 124.58C323.49 125.18 324.126 125.996 324.557 127.028C324.99 128.06 325.206 129.224 325.206 130.52C325.206 131.816 324.986 132.98 324.546 134.012C324.114 135.044 323.466 135.86 322.602 136.46C321.738 137.06 320.662 137.36 319.374 137.36ZM319.902 134.456C320.63 134.456 321.21 134.292 321.642 133.964C322.082 133.636 322.398 133.176 322.59 132.584C322.782 131.992 322.878 131.304 322.878 130.52C322.878 129.736 322.782 129.048 322.59 128.456C322.398 127.864 322.09 127.404 321.666 127.076C321.25 126.748 320.702 126.584 320.022 126.584C319.294 126.584 318.694 126.764 318.222 127.124C317.758 127.476 317.414 127.952 317.19 128.552C316.966 129.144 316.854 129.8 316.854 130.52C316.854 131.248 316.962 131.912 317.178 132.512C317.394 133.104 317.726 133.576 318.174 133.928C318.622 134.28 319.198 134.456 319.902 134.456ZM322.878 137V128.12H322.47V119.72H325.758V137H322.878ZM337.522 137.36C336.594 137.36 335.806 137.184 335.158 136.832C334.518 136.472 334.03 135.996 333.694 135.404C333.366 134.804 333.202 134.144 333.202 133.424C333.202 132.824 333.294 132.276 333.478 131.78C333.662 131.284 333.958 130.848 334.366 130.472C334.782 130.088 335.338 129.768 336.034 129.512C336.514 129.336 337.086 129.18 337.75 129.044C338.414 128.908 339.166 128.78 340.006 128.66C340.846 128.532 341.77 128.392 342.778 128.24L341.602 128.888C341.602 128.12 341.418 127.556 341.05 127.196C340.682 126.836 340.066 126.656 339.202 126.656C338.722 126.656 338.222 126.772 337.702 127.004C337.182 127.236 336.818 127.648 336.61 128.24L333.658 127.304C333.986 126.232 334.602 125.36 335.506 124.688C336.41 124.016 337.642 123.68 339.202 123.68C340.346 123.68 341.362 123.856 342.25 124.208C343.138 124.56 343.81 125.168 344.266 126.032C344.522 126.512 344.674 126.992 344.722 127.472C344.77 127.952 344.794 128.488 344.794 129.08V137H341.938V134.336L342.346 134.888C341.714 135.76 341.03 136.392 340.294 136.784C339.566 137.168 338.642 137.36 337.522 137.36ZM338.218 134.792C338.818 134.792 339.322 134.688 339.73 134.48C340.146 134.264 340.474 134.02 340.714 133.748C340.962 133.476 341.13 133.248 341.218 133.064C341.386 132.712 341.482 132.304 341.506 131.84C341.538 131.368 341.554 130.976 341.554 130.664L342.514 130.904C341.546 131.064 340.762 131.2 340.162 131.312C339.562 131.416 339.078 131.512 338.71 131.6C338.342 131.688 338.018 131.784 337.738 131.888C337.418 132.016 337.158 132.156 336.958 132.308C336.766 132.452 336.622 132.612 336.526 132.788C336.438 132.964 336.394 133.16 336.394 133.376C336.394 133.672 336.466 133.928 336.61 134.144C336.762 134.352 336.974 134.512 337.246 134.624C337.518 134.736 337.842 134.792 338.218 134.792ZM354.274 137.36C352.986 137.36 351.91 137.06 351.046 136.46C350.182 135.86 349.53 135.044 349.09 134.012C348.658 132.98 348.442 131.816 348.442 130.52C348.442 129.224 348.658 128.06 349.09 127.028C349.522 125.996 350.158 125.18 350.998 124.58C351.838 123.98 352.874 123.68 354.106 123.68C355.346 123.68 356.426 123.976 357.346 124.568C358.266 125.16 358.978 125.972 359.482 127.004C359.994 128.028 360.25 129.2 360.25 130.52C360.25 131.816 359.998 132.98 359.494 134.012C358.998 135.044 358.302 135.86 357.406 136.46C356.51 137.06 355.466 137.36 354.274 137.36ZM347.89 137V119.72H351.178V128.12H350.77V137H347.89ZM353.746 134.456C354.45 134.456 355.026 134.28 355.474 133.928C355.922 133.576 356.254 133.104 356.47 132.512C356.686 131.912 356.794 131.248 356.794 130.52C356.794 129.8 356.682 129.144 356.458 128.552C356.234 127.952 355.886 127.476 355.414 127.124C354.95 126.764 354.354 126.584 353.626 126.584C352.946 126.584 352.394 126.748 351.97 127.076C351.554 127.404 351.25 127.864 351.058 128.456C350.866 129.048 350.77 129.736 350.77 130.52C350.77 131.304 350.866 131.992 351.058 132.584C351.25 133.176 351.562 133.636 351.994 133.964C352.434 134.292 353.018 134.456 353.746 134.456ZM368.723 137.36C367.419 137.36 366.275 137.068 365.291 136.484C364.307 135.9 363.539 135.096 362.987 134.072C362.443 133.04 362.171 131.856 362.171 130.52C362.171 129.168 362.451 127.98 363.011 126.956C363.571 125.924 364.343 125.12 365.327 124.544C366.311 123.968 367.443 123.68 368.723 123.68C370.027 123.68 371.171 123.972 372.155 124.556C373.147 125.14 373.919 125.948 374.471 126.98C375.023 128.004 375.299 129.184 375.299 130.52C375.299 131.864 375.019 133.052 374.459 134.084C373.907 135.108 373.135 135.912 372.143 136.496C371.159 137.072 370.019 137.36 368.723 137.36ZM368.723 134.312C369.771 134.312 370.551 133.96 371.063 133.256C371.583 132.544 371.843 131.632 371.843 130.52C371.843 129.368 371.579 128.448 371.051 127.76C370.531 127.072 369.755 126.728 368.723 126.728C368.011 126.728 367.427 126.888 366.971 127.208C366.515 127.528 366.175 127.972 365.951 128.54C365.735 129.108 365.627 129.768 365.627 130.52C365.627 131.68 365.887 132.604 366.407 133.292C366.935 133.972 367.707 134.312 368.723 134.312ZM382.762 137.384C381.746 137.384 380.918 137.212 380.278 136.868C379.638 136.524 379.138 136.088 378.778 135.56C378.426 135.032 378.174 134.484 378.022 133.916C377.87 133.34 377.778 132.816 377.746 132.344C377.714 131.872 377.698 131.528 377.698 131.312V124.04H381.01V130.16C381.01 130.456 381.026 130.836 381.058 131.3C381.09 131.756 381.19 132.216 381.358 132.68C381.526 133.144 381.798 133.532 382.174 133.844C382.558 134.156 383.098 134.312 383.794 134.312C384.074 134.312 384.374 134.268 384.694 134.18C385.014 134.092 385.314 133.924 385.594 133.676C385.874 133.42 386.102 133.048 386.278 132.56C386.462 132.064 386.554 131.416 386.554 130.616L388.426 131.504C388.426 132.528 388.218 133.488 387.802 134.384C387.386 135.28 386.758 136.004 385.918 136.556C385.086 137.108 384.034 137.384 382.762 137.384ZM386.962 137V132.704H386.554V124.04H389.842V137H386.962ZM400.972 137C400.076 137.168 399.196 137.24 398.332 137.216C397.476 137.2 396.708 137.052 396.028 136.772C395.356 136.484 394.844 136.024 394.492 135.392C394.172 134.8 394.004 134.2 393.988 133.592C393.972 132.976 393.964 132.28 393.964 131.504V120.44H397.228V131.312C397.228 131.816 397.232 132.272 397.24 132.68C397.256 133.08 397.34 133.4 397.492 133.64C397.78 134.096 398.24 134.344 398.872 134.384C399.504 134.424 400.204 134.392 400.972 134.288V137ZM391.756 126.56V124.04H400.972V126.56H391.756ZM408.904 137V119.36H412.168V137H408.904ZM419.366 137.36C418.438 137.36 417.65 137.184 417.002 136.832C416.362 136.472 415.874 135.996 415.538 135.404C415.21 134.804 415.046 134.144 415.046 133.424C415.046 132.824 415.138 132.276 415.322 131.78C415.506 131.284 415.802 130.848 416.21 130.472C416.626 130.088 417.182 129.768 417.878 129.512C418.358 129.336 418.93 129.18 419.594 129.044C420.258 128.908 421.01 128.78 421.85 128.66C422.69 128.532 423.614 128.392 424.622 128.24L423.446 128.888C423.446 128.12 423.262 127.556 422.894 127.196C422.526 126.836 421.91 126.656 421.046 126.656C420.566 126.656 420.066 126.772 419.546 127.004C419.026 127.236 418.662 127.648 418.454 128.24L415.502 127.304C415.83 126.232 416.446 125.36 417.35 124.688C418.254 124.016 419.486 123.68 421.046 123.68C422.19 123.68 423.206 123.856 424.094 124.208C424.982 124.56 425.654 125.168 426.11 126.032C426.366 126.512 426.518 126.992 426.566 127.472C426.614 127.952 426.638 128.488 426.638 129.08V137H423.782V134.336L424.19 134.888C423.558 135.76 422.874 136.392 422.138 136.784C421.41 137.168 420.486 137.36 419.366 137.36ZM420.062 134.792C420.662 134.792 421.166 134.688 421.574 134.48C421.99 134.264 422.318 134.02 422.558 133.748C422.806 133.476 422.974 133.248 423.062 133.064C423.23 132.712 423.326 132.304 423.35 131.84C423.382 131.368 423.398 130.976 423.398 130.664L424.358 130.904C423.39 131.064 422.606 131.2 422.006 131.312C421.406 131.416 420.922 131.512 420.554 131.6C420.186 131.688 419.862 131.784 419.582 131.888C419.262 132.016 419.002 132.156 418.802 132.308C418.61 132.452 418.466 132.612 418.37 132.788C418.282 132.964 418.238 133.16 418.238 133.376C418.238 133.672 418.31 133.928 418.454 134.144C418.606 134.352 418.818 134.512 419.09 134.624C419.362 134.736 419.686 134.792 420.062 134.792ZM437.534 137C436.638 137.168 435.758 137.24 434.894 137.216C434.038 137.2 433.27 137.052 432.59 136.772C431.918 136.484 431.406 136.024 431.054 135.392C430.734 134.8 430.566 134.2 430.55 133.592C430.534 132.976 430.526 132.28 430.526 131.504V120.44H433.79V131.312C433.79 131.816 433.794 132.272 433.802 132.68C433.818 133.08 433.902 133.4 434.054 133.64C434.342 134.096 434.802 134.344 435.434 134.384C436.066 134.424 436.766 134.392 437.534 134.288V137ZM428.318 126.56V124.04H437.534V126.56H428.318ZM445.743 137.36C444.415 137.36 443.243 137.076 442.227 136.508C441.219 135.932 440.427 135.144 439.851 134.144C439.283 133.136 438.999 131.984 438.999 130.688C438.999 129.272 439.279 128.04 439.839 126.992C440.399 125.944 441.171 125.132 442.155 124.556C443.139 123.972 444.271 123.68 445.551 123.68C446.911 123.68 448.067 124 449.019 124.64C449.971 125.28 450.675 126.18 451.131 127.34C451.587 128.5 451.747 129.864 451.611 131.432H448.383V130.232C448.383 128.912 448.171 127.964 447.747 127.388C447.331 126.804 446.647 126.512 445.695 126.512C444.583 126.512 443.763 126.852 443.235 127.532C442.715 128.204 442.455 129.2 442.455 130.52C442.455 131.728 442.715 132.664 443.235 133.328C443.763 133.984 444.535 134.312 445.551 134.312C446.191 134.312 446.739 134.172 447.195 133.892C447.651 133.612 447.999 133.208 448.239 132.68L451.503 133.616C451.015 134.8 450.243 135.72 449.187 136.376C448.139 137.032 446.991 137.36 445.743 137.36ZM441.447 131.432V129.008H450.039V131.432H441.447ZM459.385 137.36C457.753 137.36 456.433 136.992 455.425 136.256C454.425 135.512 453.817 134.464 453.601 133.112L456.937 132.608C457.073 133.216 457.373 133.692 457.837 134.036C458.309 134.38 458.905 134.552 459.625 134.552C460.217 134.552 460.673 134.44 460.993 134.216C461.313 133.984 461.473 133.664 461.473 133.256C461.473 133 461.409 132.796 461.281 132.644C461.153 132.484 460.865 132.328 460.417 132.176C459.977 132.024 459.289 131.824 458.353 131.576C457.297 131.304 456.453 131 455.821 130.664C455.189 130.328 454.733 129.928 454.453 129.464C454.173 128.992 454.033 128.424 454.033 127.76C454.033 126.928 454.245 126.208 454.669 125.6C455.093 124.984 455.689 124.512 456.457 124.184C457.233 123.848 458.145 123.68 459.193 123.68C460.209 123.68 461.109 123.836 461.893 124.148C462.677 124.46 463.309 124.904 463.789 125.48C464.277 126.056 464.577 126.736 464.689 127.52L461.353 128.12C461.297 127.64 461.089 127.26 460.729 126.98C460.369 126.7 459.881 126.536 459.265 126.488C458.665 126.448 458.181 126.528 457.813 126.728C457.453 126.928 457.273 127.216 457.273 127.592C457.273 127.816 457.349 128.004 457.501 128.156C457.661 128.308 457.985 128.464 458.473 128.624C458.969 128.784 459.721 128.992 460.729 129.248C461.713 129.504 462.501 129.804 463.093 130.148C463.693 130.484 464.129 130.892 464.401 131.372C464.673 131.844 464.809 132.416 464.809 133.088C464.809 134.416 464.329 135.46 463.369 136.22C462.409 136.98 461.081 137.36 459.385 137.36ZM475.222 137C474.326 137.168 473.446 137.24 472.582 137.216C471.726 137.2 470.958 137.052 470.278 136.772C469.606 136.484 469.094 136.024 468.742 135.392C468.422 134.8 468.254 134.2 468.238 133.592C468.222 132.976 468.214 132.28 468.214 131.504V120.44H471.478V131.312C471.478 131.816 471.482 132.272 471.49 132.68C471.506 133.08 471.59 133.4 471.742 133.64C472.03 134.096 472.49 134.344 473.122 134.384C473.754 134.424 474.454 134.392 475.222 134.288V137ZM466.006 126.56V124.04H475.222V126.56H466.006ZM487.738 137.384C486.722 137.384 485.894 137.212 485.254 136.868C484.614 136.524 484.114 136.088 483.754 135.56C483.402 135.032 483.15 134.484 482.998 133.916C482.846 133.34 482.754 132.816 482.722 132.344C482.69 131.872 482.674 131.528 482.674 131.312V124.04H485.986V130.16C485.986 130.456 486.002 130.836 486.034 131.3C486.066 131.756 486.166 132.216 486.334 132.68C486.502 133.144 486.774 133.532 487.15 133.844C487.534 134.156 488.074 134.312 488.77 134.312C489.05 134.312 489.35 134.268 489.67 134.18C489.99 134.092 490.29 133.924 490.57 133.676C490.85 133.42 491.078 133.048 491.254 132.56C491.438 132.064 491.53 131.416 491.53 130.616L493.402 131.504C493.402 132.528 493.194 133.488 492.778 134.384C492.362 135.28 491.734 136.004 490.894 136.556C490.062 137.108 489.01 137.384 487.738 137.384ZM491.938 137V132.704H491.53V124.04H494.818V137H491.938ZM504.532 137.36C503.244 137.36 502.168 137.06 501.304 136.46C500.44 135.86 499.788 135.044 499.348 134.012C498.916 132.98 498.7 131.816 498.7 130.52C498.7 129.224 498.916 128.06 499.348 127.028C499.78 125.996 500.416 125.18 501.256 124.58C502.096 123.98 503.132 123.68 504.364 123.68C505.604 123.68 506.684 123.976 507.604 124.568C508.524 125.16 509.236 125.972 509.74 127.004C510.252 128.028 510.508 129.2 510.508 130.52C510.508 131.816 510.256 132.98 509.752 134.012C509.256 135.044 508.56 135.86 507.664 136.46C506.768 137.06 505.724 137.36 504.532 137.36ZM498.148 142.76V124.04H501.028V132.92H501.436V142.76H498.148ZM504.004 134.456C504.708 134.456 505.284 134.28 505.732 133.928C506.18 133.576 506.512 133.104 506.728 132.512C506.944 131.912 507.052 131.248 507.052 130.52C507.052 129.8 506.94 129.144 506.716 128.552C506.492 127.952 506.144 127.476 505.672 127.124C505.208 126.764 504.612 126.584 503.884 126.584C503.204 126.584 502.652 126.748 502.228 127.076C501.812 127.404 501.508 127.864 501.316 128.456C501.124 129.048 501.028 129.736 501.028 130.52C501.028 131.304 501.124 131.992 501.316 132.584C501.508 133.176 501.82 133.636 502.252 133.964C502.692 134.292 503.276 134.456 504.004 134.456ZM518.405 137.36C517.213 137.36 516.169 137.06 515.273 136.46C514.377 135.86 513.677 135.044 513.173 134.012C512.677 132.98 512.429 131.816 512.429 130.52C512.429 129.2 512.681 128.028 513.185 127.004C513.697 125.972 514.413 125.16 515.333 124.568C516.253 123.976 517.333 123.68 518.573 123.68C519.805 123.68 520.841 123.98 521.681 124.58C522.521 125.18 523.157 125.996 523.589 127.028C524.021 128.06 524.237 129.224 524.237 130.52C524.237 131.816 524.017 132.98 523.577 134.012C523.145 135.044 522.497 135.86 521.633 136.46C520.769 137.06 519.693 137.36 518.405 137.36ZM518.933 134.456C519.661 134.456 520.241 134.292 520.673 133.964C521.113 133.636 521.429 133.176 521.621 132.584C521.813 131.992 521.909 131.304 521.909 130.52C521.909 129.736 521.813 129.048 521.621 128.456C521.429 127.864 521.121 127.404 520.697 127.076C520.281 126.748 519.733 126.584 519.053 126.584C518.325 126.584 517.725 126.764 517.253 127.124C516.789 127.476 516.445 127.952 516.221 128.552C515.997 129.144 515.885 129.8 515.885 130.52C515.885 131.248 515.993 131.912 516.209 132.512C516.425 133.104 516.757 133.576 517.205 133.928C517.653 134.28 518.229 134.456 518.933 134.456ZM521.909 137V128.12H521.501V119.72H524.789V137H521.909ZM531.749 137.36C530.821 137.36 530.033 137.184 529.385 136.832C528.745 136.472 528.257 135.996 527.921 135.404C527.593 134.804 527.429 134.144 527.429 133.424C527.429 132.824 527.521 132.276 527.705 131.78C527.889 131.284 528.185 130.848 528.593 130.472C529.009 130.088 529.565 129.768 530.261 129.512C530.741 129.336 531.313 129.18 531.977 129.044C532.641 128.908 533.393 128.78 534.233 128.66C535.073 128.532 535.997 128.392 537.005 128.24L535.829 128.888C535.829 128.12 535.645 127.556 535.277 127.196C534.909 126.836 534.293 126.656 533.429 126.656C532.949 126.656 532.449 126.772 531.929 127.004C531.409 127.236 531.045 127.648 530.837 128.24L527.885 127.304C528.213 126.232 528.829 125.36 529.733 124.688C530.637 124.016 531.869 123.68 533.429 123.68C534.573 123.68 535.589 123.856 536.477 124.208C537.365 124.56 538.037 125.168 538.493 126.032C538.749 126.512 538.901 126.992 538.949 127.472C538.997 127.952 539.021 128.488 539.021 129.08V137H536.165V134.336L536.573 134.888C535.941 135.76 535.257 136.392 534.521 136.784C533.793 137.168 532.869 137.36 531.749 137.36ZM532.445 134.792C533.045 134.792 533.549 134.688 533.957 134.48C534.373 134.264 534.701 134.02 534.941 133.748C535.189 133.476 535.357 133.248 535.445 133.064C535.613 132.712 535.709 132.304 535.733 131.84C535.765 131.368 535.781 130.976 535.781 130.664L536.741 130.904C535.773 131.064 534.989 131.2 534.389 131.312C533.789 131.416 533.305 131.512 532.937 131.6C532.569 131.688 532.245 131.784 531.965 131.888C531.645 132.016 531.385 132.156 531.185 132.308C530.993 132.452 530.849 132.612 530.753 132.788C530.665 132.964 530.621 133.16 530.621 133.376C530.621 133.672 530.693 133.928 530.837 134.144C530.989 134.352 531.201 134.512 531.473 134.624C531.745 134.736 532.069 134.792 532.445 134.792ZM549.917 137C549.021 137.168 548.141 137.24 547.277 137.216C546.421 137.2 545.653 137.052 544.973 136.772C544.301 136.484 543.789 136.024 543.437 135.392C543.117 134.8 542.949 134.2 542.933 133.592C542.917 132.976 542.909 132.28 542.909 131.504V120.44H546.173V131.312C546.173 131.816 546.177 132.272 546.185 132.68C546.201 133.08 546.285 133.4 546.437 133.64C546.725 134.096 547.185 134.344 547.817 134.384C548.449 134.424 549.149 134.392 549.917 134.288V137ZM540.701 126.56V124.04H549.917V126.56H540.701ZM558.126 137.36C556.798 137.36 555.626 137.076 554.61 136.508C553.602 135.932 552.81 135.144 552.234 134.144C551.666 133.136 551.382 131.984 551.382 130.688C551.382 129.272 551.662 128.04 552.222 126.992C552.782 125.944 553.554 125.132 554.538 124.556C555.522 123.972 556.654 123.68 557.934 123.68C559.294 123.68 560.45 124 561.402 124.64C562.354 125.28 563.058 126.18 563.514 127.34C563.97 128.5 564.13 129.864 563.994 131.432H560.766V130.232C560.766 128.912 560.554 127.964 560.13 127.388C559.714 126.804 559.03 126.512 558.078 126.512C556.966 126.512 556.146 126.852 555.618 127.532C555.098 128.204 554.838 129.2 554.838 130.52C554.838 131.728 555.098 132.664 555.618 133.328C556.146 133.984 556.918 134.312 557.934 134.312C558.574 134.312 559.122 134.172 559.578 133.892C560.034 133.612 560.382 133.208 560.622 132.68L563.886 133.616C563.398 134.8 562.626 135.72 561.57 136.376C560.522 137.032 559.374 137.36 558.126 137.36ZM553.83 131.432V129.008H562.422V131.432H553.83ZM571.767 137.36C570.135 137.36 568.815 136.992 567.807 136.256C566.807 135.512 566.199 134.464 565.983 133.112L569.319 132.608C569.455 133.216 569.755 133.692 570.219 134.036C570.691 134.38 571.287 134.552 572.007 134.552C572.599 134.552 573.055 134.44 573.375 134.216C573.695 133.984 573.855 133.664 573.855 133.256C573.855 133 573.791 132.796 573.663 132.644C573.535 132.484 573.247 132.328 572.799 132.176C572.359 132.024 571.671 131.824 570.735 131.576C569.679 131.304 568.835 131 568.203 130.664C567.571 130.328 567.115 129.928 566.835 129.464C566.555 128.992 566.415 128.424 566.415 127.76C566.415 126.928 566.627 126.208 567.051 125.6C567.475 124.984 568.071 124.512 568.839 124.184C569.615 123.848 570.527 123.68 571.575 123.68C572.591 123.68 573.491 123.836 574.275 124.148C575.059 124.46 575.691 124.904 576.171 125.48C576.659 126.056 576.959 126.736 577.071 127.52L573.735 128.12C573.679 127.64 573.471 127.26 573.111 126.98C572.751 126.7 572.263 126.536 571.647 126.488C571.047 126.448 570.563 126.528 570.195 126.728C569.835 126.928 569.655 127.216 569.655 127.592C569.655 127.816 569.731 128.004 569.883 128.156C570.043 128.308 570.367 128.464 570.855 128.624C571.351 128.784 572.103 128.992 573.111 129.248C574.095 129.504 574.883 129.804 575.475 130.148C576.075 130.484 576.511 130.892 576.783 131.372C577.055 131.844 577.191 132.416 577.191 133.088C577.191 134.416 576.711 135.46 575.751 136.22C574.791 136.98 573.463 137.36 571.767 137.36Z" fill="#0B0F19"/>
<defs>
<linearGradient id="paint0_linear_4632_10997" x1="107.5" y1="126" x2="169.5" y2="91.0004" gradientUnits="userSpaceOnUse">
<stop stop-color="#FFBA08"/>
<stop offset="1" stop-color="#FFDB7E"/>
</linearGradient>
<linearGradient id="paint1_linear_4632_10997" x1="152.5" y1="109.5" x2="170" y2="70.5" gradientUnits="userSpaceOnUse">
<stop stop-color="#7A1CD0"/>
<stop offset="1" stop-color="#6366F1"/>
</linearGradient>
<clipPath id="clip0_4632_10997">
<rect width="78" height="78" fill="white" transform="translate(110 72)"/>
</clipPath>
</defs>
</svg>
