<svg width="68" height="68" viewBox="0 0 68 68" fill="none" xmlns="http://www.w3.org/2000/svg">
<g filter="url(#filter0_d_2506_8437)">
<rect x="12" y="6" width="44" height="44" rx="6" fill="#FF0000"/>
<path d="M41.9944 24.0023C41.8028 23.2873 41.2403 22.7232 40.5261 22.5307C39.2211 22.1723 34.0003 22.1665 34.0003 22.1665C34.0003 22.1665 28.7803 22.1607 27.4744 22.5032C26.7744 22.694 26.1961 23.2707 26.0028 23.9848C25.6586 25.2898 25.6553 27.9965 25.6553 27.9965C25.6553 27.9965 25.6519 30.7165 25.9936 32.0082C26.1853 32.7223 26.7478 33.2865 27.4628 33.479C28.7811 33.8373 33.9878 33.8432 33.9878 33.8432C33.9878 33.8432 39.2086 33.849 40.5136 33.5073C41.2269 33.3157 41.7919 32.7523 41.9861 32.0382C42.3311 30.734 42.3336 28.0282 42.3336 28.0282C42.3336 28.0282 42.3503 25.3073 41.9944 24.0023ZM32.3303 30.504L32.3344 25.504L36.6736 28.0082L32.3303 30.504Z" fill="white"/>
</g>
<defs>
<filter id="filter0_d_2506_8437" x="0" y="0" width="68" height="68" filterUnits="userSpaceOnUse" color-interpolation-filters="sRGB">
<feFlood flood-opacity="0" result="BackgroundImageFix"/>
<feColorMatrix in="SourceAlpha" type="matrix" values="0 0 0 0 0 0 0 0 0 0 0 0 0 0 0 0 0 0 127 0" result="hardAlpha"/>
<feMorphology radius="6" operator="erode" in="SourceAlpha" result="effect1_dropShadow_2506_8437"/>
<feOffset dy="6"/>
<feGaussianBlur stdDeviation="9"/>
<feColorMatrix type="matrix" values="0 0 0 0 1 0 0 0 0 0 0 0 0 0 0 0 0 0 0.8 0"/>
<feBlend mode="normal" in2="BackgroundImageFix" result="effect1_dropShadow_2506_8437"/>
<feBlend mode="normal" in="SourceGraphic" in2="effect1_dropShadow_2506_8437" result="shape"/>
</filter>
</defs>
</svg>
