<svg width="136" height="36" viewBox="0 0 136 36" fill="none" xmlns="http://www.w3.org/2000/svg">
<path d="M21.5694 16.809C21.5333 12.8992 24.8528 10.9971 25.0046 10.9085C23.1246 8.23611 20.2107 7.87098 19.1867 7.84186C16.7394 7.59075 14.3655 9.26966 13.1188 9.26966C11.8473 9.26966 9.9275 7.86612 7.85841 7.90737C5.19585 7.9474 2.70498 9.45041 1.33887 11.7844C-1.48046 16.5433 0.622213 23.5367 3.32335 27.3834C4.67453 29.2673 6.25341 31.3708 8.32 31.2968C10.3418 31.2156 11.097 30.0401 13.5369 30.0401C15.9543 30.0401 16.6635 31.2968 18.7712 31.2495C20.941 31.2156 22.3072 29.3571 23.6111 27.4562C25.1725 25.2969 25.7996 23.1704 25.8245 23.0612C25.7735 23.0442 21.6104 21.4951 21.5694 16.809Z" fill="white"/>
<path d="M17.588 5.31137C18.6754 3.98547 19.4194 2.18162 19.2129 0.351074C17.639 0.419007 15.6707 1.41252 14.5372 2.70931C13.5344 3.85203 12.6386 5.72503 12.87 7.48643C14.638 7.61502 16.4533 6.61665 17.588 5.31137Z" fill="white"/>
<path d="M50.7597 31.0262H47.9341L46.3864 26.2843H41.0065L39.5321 31.0262H36.7812L42.1114 14.8825H45.4035L50.7597 31.0262ZM45.9198 24.2948L44.5201 20.0794C44.372 19.6487 44.0946 18.6346 43.6852 17.0382H43.6355C43.4725 17.7248 43.21 18.7389 42.8492 20.0794L41.4743 24.2948H45.9198Z" fill="white"/>
<path d="M64.4669 25.0628C64.4669 27.0425 63.9182 28.6074 62.8209 29.7562C61.8379 30.7788 60.6174 31.2895 59.1605 31.2895C57.5878 31.2895 56.4581 30.7388 55.77 29.6373H55.7203V35.7694H53.0677V23.2177C53.0677 21.973 53.0341 20.6957 52.9694 19.3855H55.3022L55.4503 21.2306H55.5001C56.3847 19.8404 57.7271 19.1465 59.5287 19.1465C60.9372 19.1465 62.1129 19.6888 63.0535 20.7745C63.9966 21.8614 64.4669 23.2904 64.4669 25.0628ZM61.7645 25.1574C61.7645 24.0244 61.5033 23.0903 60.9782 22.3552C60.4046 21.5885 59.6345 21.2051 58.669 21.2051C58.0146 21.2051 57.4198 21.4186 56.8886 21.8396C56.3561 22.2642 56.0077 22.8185 55.8447 23.5052C55.7626 23.8254 55.7215 24.0874 55.7215 24.2937V26.2346C55.7215 27.0813 55.9878 27.7958 56.5203 28.3793C57.0528 28.9628 57.7446 29.254 58.5956 29.254C59.5947 29.254 60.3723 28.8779 60.9284 28.1282C61.4858 27.3773 61.7645 26.3874 61.7645 25.1574Z" fill="white"/>
<path d="M78.199 25.0628C78.199 27.0425 77.6503 28.6074 76.5517 29.7562C75.5701 30.7788 74.3495 31.2895 72.8926 31.2895C71.3199 31.2895 70.1902 30.7388 69.5034 29.6373H69.4536V35.7694H66.801V23.2177C66.801 21.973 66.7674 20.6957 66.7027 19.3855H69.0356L69.1837 21.2306H69.2334C70.1168 19.8404 71.4593 19.1465 73.2621 19.1465C74.6693 19.1465 75.845 19.6888 76.7881 20.7745C77.7275 21.8614 78.199 23.2904 78.199 25.0628ZM75.4967 25.1574C75.4967 24.0244 75.2341 23.0903 74.7091 22.3552C74.1355 21.5885 73.3679 21.2051 72.4011 21.2051C71.7454 21.2051 71.152 21.4186 70.6194 21.8396C70.0869 22.2642 69.7398 22.8185 69.5768 23.5052C69.4959 23.8254 69.4536 24.0874 69.4536 24.2937V26.2346C69.4536 27.0813 69.7199 27.7958 70.2499 28.3793C70.7824 28.9616 71.4742 29.254 72.3277 29.254C73.3268 29.254 74.1044 28.8779 74.6606 28.1282C75.218 27.3773 75.4967 26.3874 75.4967 25.1574Z" fill="white"/>
<path d="M93.5523 26.499C93.5523 27.8722 93.0634 28.9895 92.0817 29.852C91.003 30.7946 89.5012 31.2652 87.5715 31.2652C85.7898 31.2652 84.3615 30.9304 83.2803 30.2596L83.8949 28.1039C85.0595 28.7906 86.3373 29.1351 87.7295 29.1351C88.7286 29.1351 89.5062 28.9143 90.0649 28.4751C90.621 28.036 90.8985 27.4465 90.8985 26.7113C90.8985 26.0563 90.6695 25.5043 90.2104 25.0567C89.7538 24.6091 88.9911 24.193 87.9261 23.8084C85.0271 22.7542 83.5789 21.21 83.5789 19.1793C83.5789 17.8522 84.0865 16.764 85.103 15.9173C86.1158 15.0694 87.467 14.646 89.1566 14.646C90.6633 14.646 91.915 14.902 92.914 15.4127L92.2509 17.521C91.3177 17.0261 90.2627 16.7786 89.0819 16.7786C88.1488 16.7786 87.4197 17.003 86.8972 17.4494C86.4555 17.8485 86.234 18.335 86.234 18.9112C86.234 19.5493 86.4866 20.077 86.9942 20.4918C87.4359 20.8752 88.2384 21.2901 89.403 21.7377C90.8275 22.2969 91.8739 22.9508 92.547 23.7005C93.2176 24.4477 93.5523 25.383 93.5523 26.499Z" fill="white"/>
<path d="M102.323 21.3264H99.3988V26.9782C99.3988 28.4157 99.9138 29.1338 100.947 29.1338C101.421 29.1338 101.814 29.0938 102.125 29.0137L102.198 30.9777C101.676 31.1682 100.988 31.264 100.135 31.264C99.0877 31.264 98.269 30.9523 97.678 30.3299C97.0895 29.7064 96.7934 28.6607 96.7934 27.1917V21.324H95.0516V19.3831H96.7934V17.2517L99.3988 16.485V19.3831H102.323V21.3264Z" fill="white"/>
<path d="M115.515 25.11C115.515 26.8993 114.99 28.3684 113.942 29.5172C112.843 30.6999 111.385 31.2895 109.567 31.2895C107.816 31.2895 106.421 30.723 105.381 29.59C104.341 28.4569 103.821 27.0267 103.821 25.3029C103.821 23.4991 104.356 22.0215 105.429 20.8727C106.501 19.7227 107.946 19.1477 109.764 19.1477C111.516 19.1477 112.926 19.7143 113.989 20.8485C115.007 21.9488 115.515 23.3693 115.515 25.11ZM112.763 25.1938C112.763 24.1202 112.527 23.1994 112.051 22.4316C111.495 21.5023 110.7 21.0389 109.67 21.0389C108.603 21.0389 107.793 21.5036 107.237 22.4316C106.761 23.2007 106.525 24.1359 106.525 25.2423C106.525 26.3159 106.761 27.2366 107.237 28.0033C107.811 28.9325 108.612 29.3959 109.646 29.3959C110.659 29.3959 111.454 28.9228 112.027 27.979C112.516 27.1966 112.763 26.2661 112.763 25.1938Z" fill="white"/>
<path d="M124.137 21.6601C123.874 21.6127 123.594 21.5885 123.301 21.5885C122.368 21.5885 121.646 21.9318 121.138 22.6196C120.697 23.2261 120.475 23.9928 120.475 24.9184V31.0263H117.824L117.849 23.0515C117.849 21.7098 117.815 20.4882 117.749 19.3867H120.06L120.157 21.614H120.23C120.51 20.8485 120.952 20.2323 121.556 19.7701C122.147 19.354 122.786 19.1465 123.474 19.1465C123.719 19.1465 123.94 19.1635 124.137 19.1939V21.6601Z" fill="white"/>
<path d="M136 24.6551C136 25.1185 135.969 25.5092 135.903 25.8282H127.945C127.977 26.9782 128.361 27.8577 129.1 28.4642C129.771 29.0065 130.638 29.2782 131.703 29.2782C132.881 29.2782 133.956 29.095 134.923 28.7275L135.338 30.5228C134.209 31.0032 132.875 31.2422 131.336 31.2422C129.484 31.2422 128.031 30.7109 126.974 29.6494C125.919 28.588 125.39 27.1626 125.39 25.3745C125.39 23.6192 125.881 22.1574 126.865 20.9916C127.896 19.747 129.288 19.1247 131.04 19.1247C132.76 19.1247 134.063 19.747 134.948 20.9916C135.648 21.9803 136 23.2031 136 24.6551ZM133.471 23.9843C133.488 23.2176 133.315 22.5553 132.956 21.9961C132.497 21.2767 131.791 20.9176 130.842 20.9176C129.975 20.9176 129.269 21.2682 128.73 21.9718C128.289 22.531 128.026 23.2019 127.945 23.9831H133.471V23.9843Z" fill="white"/>
<path d="M45.0427 4.95148C45.0427 6.37928 44.6035 7.45407 43.7264 8.17586C42.9139 8.84184 41.7593 9.17544 40.2638 9.17544C39.5223 9.17544 38.8877 9.1439 38.3564 9.08082V1.27947C39.0495 1.1703 39.796 1.1145 40.6022 1.1145C42.0268 1.1145 43.1005 1.41655 43.8247 2.02067C44.6359 2.70363 45.0427 3.68017 45.0427 4.95148ZM43.6679 4.98666C43.6679 4.06108 43.4166 3.35142 42.9139 2.85648C42.4113 2.36276 41.6772 2.11529 40.7105 2.11529C40.2999 2.11529 39.9503 2.14198 39.6604 2.19778V8.12855C39.8209 8.15281 40.1145 8.16372 40.5412 8.16372C41.5391 8.16372 42.3092 7.89321 42.8517 7.35217C43.3942 6.81114 43.6679 6.02263 43.6679 4.98666Z" fill="white"/>
<path d="M52.3324 6.19852C52.3324 7.07801 52.0749 7.79858 51.5598 8.36388C51.0198 8.94495 50.3044 9.23487 49.4111 9.23487C48.5501 9.23487 47.8645 8.95708 47.3532 8.39906C46.8431 7.84225 46.588 7.13988 46.588 6.29315C46.588 5.4076 46.8505 4.68096 47.3781 4.11687C47.9056 3.55279 48.6148 3.27014 49.5081 3.27014C50.3691 3.27014 51.0609 3.54794 51.5847 4.10474C52.0823 4.64578 52.3324 5.34451 52.3324 6.19852ZM50.98 6.23977C50.98 5.71208 50.863 5.2596 50.6304 4.88233C50.3566 4.42621 49.9672 4.19815 49.4608 4.19815C48.937 4.19815 48.5389 4.42621 48.2652 4.88233C48.0313 5.2596 47.9155 5.71936 47.9155 6.26282C47.9155 6.79051 48.0325 7.24299 48.2652 7.62026C48.5476 8.07638 48.9408 8.30444 49.4484 8.30444C49.9461 8.30444 50.3367 8.07274 50.6179 7.60813C50.8593 7.22358 50.98 6.76746 50.98 6.23977Z" fill="white"/>
<path d="M62.1067 3.3866L60.2716 9.10507H59.0772L58.317 6.62189C58.1241 6.002 57.9673 5.38576 57.8454 4.77436H57.8218C57.7085 5.40274 57.5518 6.01777 57.3502 6.62189L56.5427 9.10507H55.3346L53.609 3.3866H54.9489L55.6121 6.10512C55.7726 6.74805 55.9045 7.36066 56.0102 7.94051H56.0339C56.1309 7.46256 56.2914 6.85359 56.5179 6.11725L57.3502 3.38781H58.4128L59.2103 6.05902C59.4031 6.71045 59.5599 7.33761 59.6806 7.94173H59.7167C59.805 7.35338 59.9381 6.72622 60.1148 6.05902L60.8265 3.38781H62.1067V3.3866Z" fill="white"/>
<path d="M68.8664 9.10508H67.5625V5.82976C67.5625 4.82047 67.1693 4.31583 66.3805 4.31583C65.9936 4.31583 65.6813 4.45412 65.4387 4.73192C65.1986 5.00971 65.0766 5.33724 65.0766 5.71209V9.10387H63.7727V5.02063C63.7727 4.51841 63.7566 3.97374 63.7255 3.38418H64.8713L64.9323 4.27822H64.9684C65.1202 4.00043 65.3466 3.77115 65.644 3.58798C65.9973 3.37448 66.393 3.26651 66.826 3.26651C67.3734 3.26651 67.8288 3.43877 68.1908 3.7845C68.6412 4.20786 68.8664 4.83988 68.8664 5.67934V9.10508Z" fill="white"/>
<path d="M72.4621 9.10507H71.1595V0.762695H72.4621V9.10507Z" fill="white"/>
<path d="M80.1388 6.19852C80.1388 7.07801 79.8812 7.79858 79.3661 8.36388C78.8262 8.94495 78.1095 9.23487 77.2174 9.23487C76.3552 9.23487 75.6697 8.95708 75.1595 8.39906C74.6494 7.84225 74.3944 7.13988 74.3944 6.29315C74.3944 5.4076 74.6569 4.68096 75.1844 4.11687C75.712 3.55279 76.4212 3.27014 77.3132 3.27014C78.1755 3.27014 78.866 3.54794 79.391 4.10474C79.8887 4.64578 80.1388 5.34451 80.1388 6.19852ZM78.7851 6.23977C78.7851 5.71208 78.6682 5.2596 78.4355 4.88233C78.163 4.42621 77.7723 4.19815 77.2672 4.19815C76.7421 4.19815 76.344 4.42621 76.0715 4.88233C75.8376 5.2596 75.7219 5.71936 75.7219 6.26282C75.7219 6.79051 75.8389 7.24299 76.0715 7.62026C76.354 8.07638 76.7471 8.30444 77.2548 8.30444C77.7524 8.30444 78.1419 8.07274 78.423 7.60813C78.6657 7.22358 78.7851 6.76746 78.7851 6.23977Z" fill="white"/>
<path d="M86.4493 9.10507H85.2785L85.1815 8.44637H85.1454C84.7448 8.97163 84.1737 9.23487 83.4321 9.23487C82.8785 9.23487 82.4306 9.0614 82.0934 8.71689C81.7873 8.40391 81.6343 8.01451 81.6343 7.55233C81.6343 6.85359 81.9329 6.32105 82.5338 5.95227C83.1335 5.58349 83.9771 5.40274 85.0633 5.41123V5.30448C85.0633 4.55116 84.6577 4.1751 83.8452 4.1751C83.2667 4.1751 82.7566 4.31703 82.3161 4.59847L82.0511 3.76387C82.5961 3.43512 83.2692 3.27014 84.063 3.27014C85.5958 3.27014 86.3647 4.05865 86.3647 5.63565V7.74157C86.3647 8.31293 86.3933 8.76784 86.4493 9.10507ZM85.0956 7.13988V6.25797C83.6573 6.23371 82.9382 6.61825 82.9382 7.4104C82.9382 7.70881 83.0203 7.93202 83.1883 8.08123C83.3563 8.23044 83.5703 8.30444 83.8253 8.30444C84.1115 8.30444 84.379 8.21588 84.6228 8.03999C84.8679 7.86288 85.0185 7.63845 85.0745 7.36309C85.0882 7.30122 85.0956 7.22601 85.0956 7.13988Z" fill="white"/>
<path d="M93.8584 9.10507H92.7014L92.6404 8.18677H92.6043C92.2348 8.8855 91.6052 9.23487 90.7206 9.23487C90.0139 9.23487 89.4254 8.96435 88.9588 8.42332C88.4923 7.88228 88.2596 7.17991 88.2596 6.3174C88.2596 5.39182 88.5122 4.64214 89.0198 4.06956C89.5113 3.5358 90.1134 3.26893 90.8301 3.26893C91.6177 3.26893 92.1688 3.52731 92.4824 4.0453H92.5072V0.762695H93.8124V7.56445C93.8124 8.12126 93.8273 8.63439 93.8584 9.10507ZM92.5072 6.69346V5.73998C92.5072 5.575 92.4948 5.44156 92.4712 5.33966C92.3978 5.03396 92.2398 4.77679 91.9996 4.56935C91.757 4.36191 91.4646 4.25759 91.1274 4.25759C90.641 4.25759 90.2603 4.44562 89.9803 4.82289C89.7029 5.20015 89.5623 5.68175 89.5623 6.27009C89.5623 6.83539 89.6954 7.29394 89.9629 7.64694C90.2453 8.023 90.626 8.21103 91.1026 8.21103C91.5306 8.21103 91.8727 8.05454 92.1328 7.74035C92.3841 7.45042 92.5072 7.10106 92.5072 6.69346Z" fill="white"/>
<path d="M105.01 6.19852C105.01 7.07801 104.753 7.79858 104.237 8.36388C103.697 8.94495 102.983 9.23487 102.089 9.23487C101.229 9.23487 100.543 8.95708 100.031 8.39906C99.5208 7.84225 99.2657 7.13988 99.2657 6.29315C99.2657 5.4076 99.5282 4.68096 100.056 4.11687C100.583 3.55279 101.292 3.27014 102.187 3.27014C103.047 3.27014 103.74 3.54794 104.262 4.10474C104.76 4.64578 105.01 5.34451 105.01 6.19852ZM103.659 6.23977C103.659 5.71208 103.542 5.2596 103.309 4.88233C103.034 4.42621 102.646 4.19815 102.139 4.19815C101.616 4.19815 101.218 4.42621 100.943 4.88233C100.709 5.2596 100.593 5.71936 100.593 6.26282C100.593 6.79051 100.71 7.24299 100.943 7.62026C101.225 8.07638 101.618 8.30444 102.126 8.30444C102.624 8.30444 103.016 8.07274 103.297 7.60813C103.537 7.22358 103.659 6.76746 103.659 6.23977Z" fill="white"/>
<path d="M112.021 9.10508H110.718V5.82976C110.718 4.82047 110.325 4.31583 109.535 4.31583C109.148 4.31583 108.836 4.45412 108.595 4.73192C108.353 5.00971 108.233 5.33724 108.233 5.71209V9.10387H106.927V5.02063C106.927 4.51841 106.912 3.97374 106.881 3.38418H108.026L108.087 4.27822H108.123C108.276 4.00043 108.503 3.77115 108.799 3.58798C109.153 3.37448 109.548 3.26651 109.982 3.26651C110.528 3.26651 110.983 3.43877 111.345 3.7845C111.797 4.20786 112.021 4.83988 112.021 5.67934V9.10508Z" fill="white"/>
<path d="M120.796 4.33887H119.361V7.11684C119.361 7.82285 119.616 8.17586 120.121 8.17586C120.355 8.17586 120.549 8.15645 120.702 8.11642L120.735 9.08082C120.478 9.17544 120.139 9.22275 119.723 9.22275C119.208 9.22275 118.807 9.0699 118.517 8.7642C118.226 8.45851 118.082 7.94416 118.082 7.22237V4.33887H117.224V3.3866H118.082V2.3385L119.359 1.96244V3.38539H120.795V4.33887H120.796Z" fill="white"/>
<path d="M127.699 9.10507H126.394V5.85401C126.394 4.82895 126.001 4.31582 125.213 4.31582C124.609 4.31582 124.195 4.61302 123.969 5.20743C123.93 5.33238 123.908 5.48523 123.908 5.66477V9.10386H122.605V0.762695H123.908V4.20907H123.933C124.344 3.5819 124.932 3.26893 125.695 3.26893C126.235 3.26893 126.681 3.44118 127.036 3.78691C127.478 4.21756 127.699 4.85807 127.699 5.7048V9.10507Z" fill="white"/>
<path d="M134.82 5.97531C134.82 6.20337 134.802 6.39504 134.771 6.55153H130.861C130.878 7.11682 131.065 7.54747 131.427 7.84589C131.758 8.11276 132.184 8.2462 132.707 8.2462C133.285 8.2462 133.813 8.15644 134.288 7.97569L134.492 8.85881C133.936 9.09415 133.282 9.21182 132.524 9.21182C131.616 9.21182 130.9 8.95101 130.383 8.42938C129.863 7.90775 129.605 7.2078 129.605 6.32953C129.605 5.46703 129.845 4.74888 130.329 4.17631C130.834 3.56491 131.518 3.25922 132.38 3.25922C133.223 3.25922 133.864 3.56491 134.297 4.17631C134.647 4.66154 134.82 5.26202 134.82 5.97531ZM133.575 5.64657C133.585 5.2693 133.499 4.94419 133.323 4.67003C133.096 4.31703 132.752 4.13992 132.285 4.13992C131.86 4.13992 131.513 4.31217 131.248 4.6579C131.031 4.93327 130.903 5.26202 130.861 5.64657H133.575Z" fill="white"/>
</svg>
